<svg width="40" height="40" viewBox="0 0 40 40" fill="none" xmlns="http://www.w3.org/2000/svg">
    <path d="M16.0851 37.5L15.8906 37.37C15.8478 37.3433 11.5548 34.5334 11.5548 28.5448C11.5548 26.2129 12.4457 25.2189 13.2335 24.3397C13.8988 23.598 14.4745 22.9577 14.4745 21.6158C14.4745 18.5384 11.7863 17.7165 10.1952 17.7165H10.0007V17.5253C10.0007 17.4469 9.94036 15.5928 10.9732 14.5434C11.2 14.3147 11.4728 14.135 11.7742 14.0159C12.0757 13.8967 12.3991 13.8407 12.7239 13.8515C14.5912 13.8515 15.1573 15.8031 15.5327 17.101C15.6494 17.5024 15.8439 18.1657 15.9743 18.2001C16.2038 17.9401 15.8575 15.9656 15.6708 14.899C15.3926 13.3106 15.3168 12.7811 15.4763 12.588C15.4996 12.5596 15.5293 12.5369 15.5631 12.5217C15.5968 12.5064 15.6337 12.499 15.6708 12.5001C16.3244 12.5001 17.1122 13.1576 17.9466 13.8515C18.7247 14.509 19.5475 15.1895 20.1486 15.2105C20.7107 15.2278 21.3818 14.8283 22.0937 14.4096C22.9185 13.9165 23.8541 13.3583 24.8714 13.3182C24.9784 13.3182 25.3071 13.301 25.455 13.5418C25.665 13.8821 25.3402 14.4364 24.8481 15.2736C24.2762 16.2465 23.4865 17.5788 23.4865 18.827C23.4858 18.8846 23.4903 18.9422 23.5001 18.999C23.7063 18.8805 24.177 18.3147 24.5602 17.8522C25.7137 16.4645 27.2951 14.5645 28.7364 14.899C29.6662 15.115 30.3392 16.2026 30.7944 18.223L30.8333 18.3988L30.6563 18.4485C30.6057 18.4619 25.5464 19.884 25.241 21.7458C24.9298 23.6381 25.5153 24.8233 26.0832 25.9682C26.5034 26.8169 26.9002 27.6178 26.9002 28.6442C26.9002 31.1291 23.6226 36.1601 19.8218 36.1601H19.4327L19.6681 35.8523C20.8683 34.2983 22.1151 32.4366 22.156 31.9816C21.8058 32.0084 21.4518 32.2836 21.1095 32.5551C20.7204 32.8494 20.3314 33.1553 19.9015 33.1553H19.707V32.9641C19.6662 31.6261 19.3997 30.592 19.1993 30.5805C18.9893 30.5805 18.5302 31.3795 18.2832 31.8096C17.8552 32.5551 17.5985 32.9775 17.2872 33.0138L17.1394 33.031L17.0849 32.8953C16.7212 32.0027 15.9918 30.7449 15.5697 30.8768C15.2468 31.1119 15.7097 33.8071 15.9334 35.1011C16.1765 36.5251 16.2621 37.0814 16.1843 37.2821L16.0851 37.5ZM10.3858 17.3399C12.1365 17.4049 14.8597 18.3625 14.8597 21.6177C14.8597 23.1049 14.21 23.8293 13.5214 24.5958C12.7433 25.4617 11.94 26.3581 11.94 28.5448C11.94 33.398 14.8577 36.0817 15.8011 36.831C15.7583 36.4487 15.6436 35.772 15.5385 35.1604C15.0017 32.0294 14.8675 30.6914 15.4393 30.5098C16.2466 30.2537 17.0519 31.867 17.3456 32.5379C17.5638 32.2466 17.7589 31.9392 17.9291 31.6185C18.3765 30.8386 18.7578 30.1677 19.2149 30.1944C19.8685 30.2346 20.0357 31.8421 20.0785 32.7328C20.3633 32.6134 20.6262 32.4487 20.8566 32.2454C21.2709 31.9243 21.6969 31.5936 22.1988 31.5936C22.2595 31.5909 22.3197 31.6055 22.3722 31.6357C22.4246 31.6659 22.4671 31.7104 22.4944 31.7637C22.7512 32.2703 21.2806 34.3518 20.2186 35.7529C23.5759 35.4031 26.5015 30.8405 26.5015 28.6404C26.5015 27.7095 26.1241 26.9469 25.7234 26.1383C25.1574 24.9914 24.5174 23.7012 24.8461 21.6885C25.1593 19.777 29.4192 18.416 30.3645 18.1351C29.9522 16.4147 29.3725 15.4457 28.6372 15.2679C27.4351 14.9888 25.879 16.8563 24.852 18.0911C24.0194 19.0946 23.6674 19.496 23.3406 19.3832C23.0877 19.2953 23.0877 18.9532 23.0877 18.8251C23.0877 17.4756 23.9008 16.0917 24.4941 15.0806C24.7897 14.5759 25.1943 13.8859 25.1048 13.7425C25.1048 13.7253 25.0309 13.6948 24.8695 13.7024C23.9533 13.7387 23.1013 14.2472 22.2785 14.7384C21.5199 15.1933 20.806 15.6215 20.1194 15.5947C19.3861 15.5661 18.5185 14.8435 17.6821 14.1459C16.9896 13.5724 16.2777 12.976 15.7681 12.8939C15.7525 13.1997 15.912 14.1 16.0404 14.8359C16.3808 16.7741 16.5792 18.0739 16.2524 18.4562C16.2186 18.4971 16.1759 18.53 16.1274 18.5525C16.0789 18.575 16.0259 18.5865 15.9723 18.5862C15.5463 18.5862 15.3888 18.0127 15.1456 17.208C14.7819 15.956 14.2839 14.2414 12.7103 14.2414C12.438 14.2313 12.1667 14.277 11.9135 14.3758C11.6603 14.4745 11.4308 14.6241 11.2397 14.8149C10.5025 15.5756 10.3975 16.8773 10.3858 17.3399Z" fill="#111111"/>
    <path d="M28.656 27.4999C28.1075 27.5046 27.5772 27.2824 27.1687 26.8767C26.2871 26.0223 25.899 24.4824 25.8373 23.3265C25.7738 22.2108 26.4594 19.336 28.451 19.1752C30.4426 19.0144 31.5127 21.1574 31.6524 23.22C31.7404 24.359 31.419 25.4904 30.7582 26.3681C30.5224 26.6862 30.232 26.9493 29.9038 27.1422C29.5757 27.3351 29.2163 27.4539 28.8464 27.4919C28.7811 27.4979 28.7195 27.4999 28.656 27.4999ZM26.1928 23.3024C26.2491 24.3276 26.6009 25.8012 27.4008 26.5752C27.5918 26.7635 27.8155 26.9065 28.0582 26.9954C28.3009 27.0842 28.5574 27.1171 28.812 27.0918C29.1342 27.0575 29.447 26.9528 29.7325 26.7838C30.018 26.6147 30.2704 26.3846 30.4752 26.1068C31.0733 25.3095 31.364 24.2832 31.2842 23.2501C31.1536 21.3182 30.2322 19.4305 28.4692 19.5752C26.7061 19.72 26.1366 22.2992 26.1928 23.3024Z" fill="#111111"/>
    <path d="M10.1155 25.8333C10.0408 25.8333 9.96613 25.8333 9.89146 25.8333C9.58736 25.8093 9.291 25.7158 9.02087 25.559C8.75074 25.4021 8.51264 25.1851 8.32143 24.9215C7.57467 23.9106 7.42349 22.3194 7.53095 21.1609C7.63477 20.0408 8.74216 17.3194 10.7384 17.5095C11.0782 17.5362 11.4095 17.6396 11.7121 17.8134C12.0146 17.9872 12.282 18.2278 12.4978 18.5204C13.1299 19.3615 13.4249 20.6655 13.3084 22.101C13.1408 24.1795 11.7055 25.8333 10.1155 25.8333ZM7.8934 21.1831C7.79687 22.2122 7.92619 23.7367 8.60192 24.6465C8.76291 24.868 8.96322 25.0502 9.19039 25.1821C9.41756 25.3139 9.66674 25.3924 9.92242 25.4128C11.3996 25.5564 12.7838 24.0157 12.9459 22.0444C13.0552 20.7141 12.7893 19.5171 12.2173 18.759C12.0313 18.5081 11.8011 18.3019 11.5409 18.1531C11.2807 18.0044 10.9958 17.916 10.7038 17.8936C8.95891 17.7218 7.98447 20.1783 7.89158 21.1831H7.8934Z" fill="#111111"/>
    <path d="M15.8604 37.5L15.3754 37.0399C15.3371 37.0024 11.4349 33.2345 11.604 28.3213C11.6663 26.5144 12.6102 25.371 13.4554 24.3718C14.0974 23.5977 14.6529 22.9302 14.6529 22.1285C14.6529 18.7714 13.1536 17.0592 10.2012 17.0592H10V16.8618C10.0302 15.8013 10.5917 13.7969 12.5055 13.7969C13.9143 13.7969 14.4738 15.3906 14.9205 16.6702C15.2184 17.5075 15.5243 18.3725 15.9489 18.3725C15.9839 18.3737 16.0188 18.3668 16.0506 18.3524C16.0824 18.338 16.1103 18.3165 16.1321 18.2895C16.5627 17.7859 16.1844 15.6236 15.957 14.34C15.8582 13.8563 15.791 13.3668 15.7557 12.8747C15.7471 12.803 15.7619 12.7305 15.7981 12.6677C15.8343 12.6048 15.8899 12.5549 15.957 12.5252C16.2468 12.4008 16.6432 12.7385 17.5126 13.5126C18.3176 14.2215 19.3923 15.1911 20.0081 15.1911C20.6239 15.1911 21.8073 14.571 22.7773 14.0754C24.0552 13.4197 24.6831 13.1117 24.9911 13.2973C25.0414 13.3269 25.0826 13.3694 25.1102 13.4202C25.1379 13.4709 25.1509 13.5281 25.148 13.5856C25.148 13.866 24.8703 14.4308 24.3833 15.4083C23.7956 16.5794 22.8156 18.5403 23.1295 19.032C23.1456 19.0597 23.1919 19.1327 23.375 19.1327C24.1035 19.1327 24.8743 18.2204 25.6914 17.2567C26.6634 16.1074 27.6697 14.9206 28.8792 14.9206C30.0887 14.9206 30.7246 17.3811 30.789 17.6615L30.8333 17.859L30.6321 17.9044C30.5757 17.9183 24.9347 19.3026 24.9347 22.1502C24.9347 23.8307 25.5062 25.0708 26.0114 26.1649C26.4139 27.0338 26.758 27.7842 26.758 28.5938C26.758 30.3711 23.4274 36.0979 20.626 36.0979H20.2235L20.465 35.782C21.6463 34.2298 22.7934 32.3024 22.5861 31.8936C22.5861 31.8798 22.56 31.8463 22.4493 31.8463C22.1566 31.8276 21.8635 31.8779 21.5947 31.993C21.3258 32.1081 21.0889 32.2846 20.9037 32.5078C20.7317 32.6937 20.5331 32.854 20.314 32.9837L20.0222 33.1417V32.8139C20.0001 31.7969 19.7445 30.3553 19.2373 30.3415C18.7121 30.3415 18.1023 31.6192 17.8085 32.2373C17.5831 32.7112 17.5187 32.8297 17.406 32.887L17.2047 32.966L17.1282 32.7685C16.927 32.2629 16.2669 30.9063 15.6511 30.6989C15.5979 30.6781 15.5405 30.6699 15.4834 30.675C15.4264 30.6802 15.3714 30.6985 15.323 30.7285C14.7193 31.0781 15.1942 34.53 15.7255 36.8681L15.8604 37.5ZM10.4266 16.6584C12.5921 16.7216 15.0554 17.7504 15.0554 22.1205C15.0554 23.0645 14.4295 23.8169 13.7674 24.6127C12.9624 25.5724 12.0648 26.6605 12.0064 28.3351C11.8797 32.024 14.1417 35.0493 15.1661 36.2342C14.8159 34.53 14.194 30.9023 15.1057 30.379C15.2048 30.321 15.3158 30.2855 15.4307 30.2749C15.5456 30.2643 15.6614 30.279 15.7698 30.3178C16.4581 30.5508 17.0538 31.6567 17.3315 32.2531C17.3617 32.1879 17.3959 32.1208 17.4261 32.0556C17.8286 31.2005 18.4464 29.9189 19.2373 29.9327C20.1248 29.9584 20.3422 31.6014 20.3965 32.4209C20.469 32.3577 20.5394 32.2866 20.6119 32.2234C20.8337 31.9621 21.115 31.7556 21.4331 31.6204C21.7512 31.4853 22.0972 31.4253 22.4432 31.4454C22.5434 31.4369 22.6438 31.4577 22.7319 31.5052C22.82 31.5526 22.8918 31.6245 22.9383 31.712C23.3066 32.4288 21.7731 34.6642 21.0566 35.6437C23.4616 35.073 26.3495 30.0887 26.3495 28.58C26.3495 27.8553 26.0214 27.1404 25.6391 26.313C25.1178 25.1834 24.5262 23.9018 24.5262 22.1363C24.5262 19.267 29.2837 17.8373 30.3342 17.5569C30.133 16.8163 29.5755 15.3096 28.8651 15.3096C27.8448 15.3096 26.9009 16.4234 25.9872 17.5016C25.1078 18.5403 24.2786 19.5218 23.371 19.5218C23.2559 19.5303 23.1405 19.5082 23.0371 19.4578C22.9337 19.4074 22.846 19.3306 22.7833 19.2354C22.3808 18.6074 23.0732 17.1145 24.017 15.2286C24.333 14.5987 24.6872 13.8897 24.7355 13.631C24.4537 13.6547 23.5984 14.0931 22.9604 14.421C21.8475 14.9917 20.6944 15.5821 20.0041 15.5821C19.2333 15.5821 18.1727 14.6362 17.2389 13.8048C16.9053 13.4849 16.5466 13.1911 16.1663 12.9261C16.1783 13.1926 16.2649 13.6962 16.3675 14.2709C16.7177 16.2595 16.9713 17.9538 16.4541 18.5502C16.3944 18.6211 16.3194 18.6779 16.2344 18.7165C16.1494 18.7551 16.0567 18.7746 15.963 18.7733C15.2546 18.7733 14.9306 17.861 14.5543 16.7986C14.1196 15.5782 13.6285 14.1919 12.5116 14.1919C10.8291 14.18 10.485 16.0383 10.4186 16.6603L10.4266 16.6584Z" fill="#111111"/>
    <path d="M15.0525 35.8333C14.9753 35.8333 14.9271 35.8333 14.875 35.7055C14.8344 35.654 14.7913 35.6046 14.7458 35.5577C14.1284 34.8767 12.2378 32.8076 12.5947 27.9684C12.7066 26.4305 13.5593 25.372 14.2635 24.5052C14.7535 23.9061 15.1779 23.3728 15.257 22.8256C15.4075 21.785 15.365 19.4304 14.1265 17.9345C13.4011 17.0617 12.3613 16.6183 11.0398 16.6183H10.8333L10.8468 16.4046C10.8468 16.3826 11.0127 14.1618 13.0481 14.1618C14.0937 14.1618 14.3985 15.3461 14.6995 16.4905C15.0139 17.6888 15.311 18.8372 16.3354 18.8372C16.4448 18.8473 16.5549 18.8293 16.6558 18.7846C16.7568 18.74 16.8456 18.6703 16.9142 18.5815C17.4447 17.8665 16.9296 15.8614 16.621 14.663C16.3972 13.7943 16.3432 13.5626 16.457 13.4168C16.4797 13.3873 16.5094 13.3642 16.5432 13.3499C16.5769 13.3356 16.6137 13.3304 16.6499 13.3349C16.8428 13.3489 17.0647 13.5566 17.5643 14.0259C18.2183 14.6451 19.208 15.5778 19.8967 15.5778C20.5469 15.5778 21.633 14.9926 22.5205 14.5232C23.2709 14.1238 23.7089 13.8941 23.9655 13.8941C24.0066 13.8932 24.0473 13.9034 24.0835 13.9238C24.1197 13.9441 24.1501 13.9738 24.1719 14.01C24.2934 14.2097 24.1719 14.5153 23.6317 15.7515C23.0915 16.9878 22.1809 19.0349 22.5533 19.6361C22.5957 19.706 22.6825 19.7979 22.9237 19.7979C23.9789 19.7979 24.9821 18.5037 25.8657 17.3613C26.6683 16.3247 27.3609 15.432 28.0843 15.418C29.3325 15.392 29.865 16.6702 29.973 17.3473L30 17.521L29.838 17.571C29.7839 17.5889 24.3146 19.3205 24.3146 21.7331C24.3146 23.1212 24.7892 24.5292 25.2079 25.7715C25.5648 26.832 25.8734 27.7487 25.8349 28.4757C25.7558 29.9835 23.1127 35.0065 21.6215 35.5837L21.0697 35.7954L21.3919 35.2861C22.1153 34.1457 23.1783 32.1265 22.9507 31.5653C22.9411 31.5384 22.9245 31.5148 22.9027 31.4972C22.8809 31.4795 22.8547 31.4685 22.8272 31.4655C21.7854 31.2478 20.68 32.3243 20.6704 32.3342L20.3752 32.6258L20.3443 32.2064C20.2961 31.5733 19.999 29.7658 19.2852 29.7658C18.5347 29.7658 17.8788 31.3856 17.6878 32.0107L17.5412 32.494L17.329 32.0367C17.329 32.0167 16.4647 30.1873 15.176 30.1873C15.1296 30.1867 15.0838 30.1981 15.0427 30.2204C15.0016 30.2427 14.9665 30.2752 14.9406 30.3151C14.3233 31.1499 15.0911 34.9266 15.2474 35.5477C15.2568 35.5746 15.2614 35.603 15.2609 35.6316V35.8313L15.0525 35.8333ZM14.8596 35.6875V35.6995V35.6875ZM11.2501 16.2249C12.5851 16.2728 13.6481 16.7601 14.4101 17.6768C15.7393 19.2746 15.7875 21.7831 15.6293 22.8875C15.5329 23.5446 15.0776 24.1098 14.549 24.7629C13.8564 25.6197 13.0712 26.5903 12.969 28.0003C12.6834 31.9668 13.9336 33.9919 14.686 34.9007C14.6532 34.7269 14.6165 34.5192 14.5741 34.2735C14.4108 33.3888 14.3172 32.4917 14.2943 31.5913C14.2794 31.1816 14.3322 30.7723 14.4506 30.381C14.6262 29.8917 14.929 29.7818 15.1509 29.7818C16.2776 29.7818 17.0801 30.8583 17.4409 31.4615C17.7148 30.7325 18.3534 29.3604 19.2601 29.3604C20.2247 29.3604 20.5604 31.0101 20.6646 31.793C21.1025 31.4455 21.9841 30.8823 22.8774 31.068C22.9671 31.0837 23.0515 31.123 23.1225 31.1821C23.1934 31.2412 23.2485 31.3181 23.2825 31.4056C23.543 32.0507 22.8176 33.5485 22.2465 34.5651C23.568 33.1052 25.3603 29.68 25.4239 28.4477C25.4587 27.8006 25.1616 26.9178 24.8182 25.8973C24.3899 24.6251 23.9037 23.1831 23.9037 21.7271C23.9037 19.2506 28.5531 17.565 29.5312 17.2394C29.427 16.826 29.0701 15.8114 28.092 15.8114H28.065C27.5229 15.8114 26.8535 16.6882 26.1358 17.6089C25.1982 18.8212 24.1333 20.2053 22.8928 20.2053C22.758 20.2157 22.6228 20.1893 22.5009 20.1287C22.379 20.068 22.2747 19.9753 22.1983 19.8598C21.7488 19.1348 22.4086 17.4991 23.2497 15.5937C23.4561 15.1284 23.6838 14.6131 23.7667 14.3435C23.3909 14.5037 23.0238 14.6851 22.6671 14.8867C21.7507 15.3761 20.6106 15.9852 19.8659 15.9852C19.0267 15.9852 18.0138 15.0285 17.273 14.3295C17.1187 14.1837 16.9412 14.018 16.8023 13.8981C16.8447 14.0859 16.9084 14.3375 16.9682 14.5692C17.3155 15.9193 17.8421 17.9644 17.1959 18.8332C17.0922 18.9692 16.9586 19.0775 16.8062 19.1491C16.6539 19.2207 16.4871 19.2535 16.32 19.2446C15.0004 19.2446 14.6339 17.8466 14.3117 16.6023C13.9895 15.3581 13.7329 14.5692 13.0326 14.5692C11.7034 14.5632 11.3465 15.7335 11.2597 16.2249H11.2501Z" fill="#111111"/>
    <path d="M9.76644 25.8333C9.52646 25.83 9.29026 25.7747 9.07503 25.6714C8.85979 25.5681 8.67094 25.4194 8.52222 25.2362C7.675 24.2868 7.39874 22.4496 7.53176 21.538C7.83668 19.434 9.45129 18.3333 10.8879 18.3333C12.2365 18.3333 13.3333 20.0431 13.3333 22.145C13.3251 24.3166 11.4465 25.8333 9.76644 25.8333ZM10.8879 18.7254C9.66002 18.7254 8.22754 19.6212 7.93695 21.5897C7.81212 22.4416 8.09247 24.1415 8.83123 24.9735C8.94197 25.1136 9.08331 25.228 9.24503 25.3086C9.40676 25.3891 9.58484 25.4337 9.76644 25.4392C11.2562 25.4392 12.9241 24.03 12.9241 22.1431C12.9159 20.2899 11.9827 18.7254 10.8797 18.7254H10.8879Z" fill="#111111"/>
    <path d="M28.7795 26.6657C26.6044 26.6657 25.8333 24.7214 25.8333 23.0577C25.8333 21.5324 26.7509 20 28.8071 20C29.8989 20 31.2795 20.5576 31.6449 23.2087C31.7362 23.8706 31.562 25.1494 30.7103 25.9606C30.4691 26.1908 30.1712 26.3733 29.8375 26.4951C29.5039 26.6169 29.1426 26.6752 28.7795 26.6657ZM28.8028 20.3507C26.9251 20.3507 26.2539 21.8094 26.2539 23.0486C26.2539 23.3814 26.324 26.297 28.7752 26.297C29.0783 26.3043 29.3795 26.2549 29.6575 26.1523C29.9354 26.0497 30.1832 25.8964 30.3831 25.7034C31.1372 24.984 31.2944 23.8077 31.2158 23.2321C30.9545 21.3238 30.141 20.3507 28.8028 20.3507Z" fill="#111111"/>
    <path d="M10.4843 25C10.4129 25 10.3415 25 10.2681 25C10.0411 24.9787 9.82097 24.9129 9.62139 24.8067C9.42181 24.7004 9.24698 24.556 9.10768 24.3823C8.26336 23.3725 8.29192 21.4177 8.36941 20.749C8.4979 19.6843 9.76845 18.3333 11.0207 18.3333C12.1872 18.3333 13.3333 19.7765 13.3333 21.2451C13.3333 22.2118 12.8541 23.6569 11.9649 24.4333C11.5649 24.7973 11.035 25.0001 10.4843 25ZM8.77321 20.7863C8.70387 21.3745 8.67125 23.2275 9.42583 24.1196C9.53002 24.2535 9.66225 24.365 9.81401 24.4467C9.96576 24.5284 10.1337 24.5786 10.3069 24.5941C10.5579 24.6169 10.8112 24.5867 11.0489 24.5058C11.2867 24.4249 11.5032 24.2951 11.6835 24.1255C12.4849 23.4275 12.9071 22.1118 12.9071 21.2294C12.9071 19.9824 11.9445 18.7098 11.0023 18.7098C9.98258 18.7098 8.87314 19.8863 8.75894 20.7804L8.77321 20.7863Z" fill="#111111"/>
    <path d="M28.6859 26.6667C27.516 26.6667 26.6667 25.1349 26.6667 23.0238C26.6667 21.6349 27.1581 20 28.5417 20C30.1051 20 30.8333 22.1131 30.8333 23.5417C30.8333 25.0496 29.9697 26.6667 28.6859 26.6667ZM28.5417 20.3968C27.0655 20.3968 27.0228 22.756 27.0228 23.0238C27.0228 24.6369 27.5944 26.2698 28.6859 26.2698C29.7418 26.2698 30.4772 24.8313 30.4772 23.5417C30.4772 22.252 29.8041 20.3968 28.5417 20.3968Z" fill="#111111"/>
    <path d="M10.0112 24.9997C9.81094 25.0042 9.61228 24.964 9.42989 24.8821C9.24751 24.8002 9.08609 24.6787 8.95764 24.5266C8.06605 23.5033 8.3899 21.1816 8.3939 21.1618C8.50785 20.4097 9.54736 19.1667 10.5169 19.1667C11.4325 19.1667 12.5 19.8594 12.5 21.807C12.5 23.6557 11.4525 24.9997 10.0112 24.9997ZM8.78972 21.2232C8.71976 21.6744 8.58981 23.5132 9.2595 24.2733C9.35068 24.3823 9.46579 24.4692 9.59604 24.5275C9.72629 24.5858 9.86827 24.614 10.0112 24.6097C11.2226 24.6097 12.1002 23.432 12.1002 21.809C12.1002 20.1524 11.2486 19.5645 10.5169 19.5645C9.78525 19.5645 8.87369 20.6294 8.78972 21.2232Z" fill="#111111"/>
    <path d="M28.6425 26.6667C27.0795 26.6667 26.6667 24.6823 26.6667 23.6323C26.6667 22.7906 26.8352 20.8333 28.3876 20.8333C29.8622 20.8333 30.8333 22.5262 30.8333 23.6458C30.8417 24.8638 30.1381 26.6667 28.6425 26.6667ZM28.3876 21.2194C27.1827 21.2194 27.088 23.0667 27.088 23.6323C27.088 24.3696 27.3681 26.2806 28.6425 26.2806C29.879 26.2806 30.412 24.5433 30.412 23.6458C30.4204 22.669 29.561 21.2194 28.3876 21.2194Z" fill="#111111"/>
    <path d="M28.9361 25.8333C27.8029 25.8333 27.5001 24.3856 27.5001 23.5232V23.3595C27.5001 22.7243 27.484 21.6635 28.0255 21.1399C28.1304 21.0391 28.2557 20.9599 28.3937 20.9073C28.5317 20.8546 28.6794 20.8296 28.8277 20.8338C30.1615 20.8338 30.8333 22.2949 30.8333 23.1112C30.8313 24.8438 30.1394 25.8333 28.9361 25.8333ZM28.8277 21.2246C28.7323 21.2205 28.6371 21.2356 28.548 21.2687C28.4589 21.3018 28.378 21.3523 28.3103 21.4171C27.8871 21.8271 27.8952 22.7878 27.9092 23.3615V23.529C27.9092 23.5482 27.9212 25.4541 28.9441 25.4541C30.2437 25.4541 30.4382 23.9929 30.4382 23.1228C30.4302 22.5779 29.9529 21.2246 28.8277 21.2246Z" fill="#111111"/>
    <path d="M10.4816 24.1665C10.343 24.1691 10.2054 24.1422 10.0771 24.0876C9.94879 24.033 9.83248 23.9518 9.73524 23.8488C9.16471 23.2541 9.16666 21.9711 9.16666 21.4252V21.3723C9.16666 20.6534 9.6141 19.1667 10.9975 19.1667C11.4488 19.1667 12.5 19.3988 12.5 21.5454C12.498 23.2378 11.781 24.1665 10.4816 24.1665ZM10.9975 19.5801C9.80168 19.5801 9.55744 21.0057 9.55744 21.3784V21.4252C9.55744 21.8794 9.55744 23.0851 10.0107 23.5616C10.0715 23.6277 10.1447 23.6798 10.2257 23.7149C10.3068 23.7499 10.3939 23.7671 10.4816 23.7653C11.8259 23.7653 12.1092 22.5657 12.1092 21.5576C12.1073 20.2807 11.7126 19.5801 10.9955 19.5801H10.9975Z" fill="#111111"/>
    <path d="M10.3575 24.1667C9.5896 24.1667 9.16666 23.36 9.16666 21.8937C9.16666 20.2457 10.0181 20.0007 10.5263 20.0007C10.6686 19.9952 10.8103 20.0238 10.9416 20.0844C11.0729 20.1451 11.1907 20.2363 11.2869 20.3519C11.7228 20.8747 11.6708 21.81 11.6579 21.9223C11.6616 22.4615 11.5707 24.1667 10.3575 24.1667ZM10.5263 20.4091C10.2815 20.4091 9.53765 20.4091 9.53765 21.8937C9.53765 22.5901 9.64339 23.7582 10.3575 23.7582C11.2238 23.7582 11.285 22.3471 11.285 21.9203V21.9019C11.285 21.9019 11.3499 21.0442 11.0068 20.6317C10.946 20.5586 10.8716 20.5009 10.7887 20.4624C10.7058 20.424 10.6163 20.4058 10.5263 20.4091Z" fill="#111111"/>
    <path d="M10.67 23.3331C10.5899 23.3356 10.5102 23.3191 10.4358 23.2846C10.3614 23.2501 10.294 23.1983 10.2376 23.1324C9.97544 22.8194 9.9928 22.2195 10.0067 21.74C10.0067 21.6437 10.0067 21.5514 10.0067 21.4691C10.0067 20.8792 10.2342 20.0004 10.8576 20.0004C10.9542 19.9968 11.0505 20.0165 11.1402 20.0583C11.2299 20.1001 11.3111 20.1631 11.3785 20.2432C11.5851 20.49 11.6806 20.9033 11.665 21.4751C11.6477 22.3299 11.3716 23.3331 10.67 23.3331ZM10.8628 20.4037C10.4825 20.4037 10.3592 21.124 10.3592 21.4711C10.3592 21.5574 10.3592 21.6537 10.3592 21.754C10.3488 22.1393 10.3331 22.6629 10.4929 22.8555C10.5158 22.8813 10.5431 22.9013 10.5729 22.9144C10.6028 22.9275 10.6346 22.9334 10.6666 22.9318C11.151 22.9318 11.3073 21.9727 11.3212 21.4651C11.3334 21.0197 11.2656 20.6846 11.1319 20.5241C11.0964 20.4843 11.0542 20.4533 11.0079 20.4329C10.9616 20.4126 10.9122 20.4033 10.8628 20.4057V20.4037Z" fill="#111111"/>
    <path d="M10.6489 23.3332C10.5729 23.3346 10.4973 23.3235 10.427 23.3006C10.3566 23.2777 10.2929 23.2435 10.2398 23.2002C9.99034 22.9897 9.99034 22.5946 10.0053 22.2074C10.0053 22.1121 10.0053 22.0088 10.0053 21.9314C10.0053 21.6991 10.0352 21.2662 10.352 21.0101C10.4193 20.9539 10.5002 20.9093 10.5898 20.8789C10.6795 20.8485 10.776 20.833 10.8734 20.8333C11.6666 20.8333 11.6667 21.5998 11.6667 22.0565C11.6691 22.676 11.3124 23.3332 10.6489 23.3332ZM10.8759 21.2324C10.8449 21.2321 10.8141 21.2371 10.7857 21.247C10.7573 21.257 10.7319 21.2716 10.7113 21.29C10.5498 21.4755 10.4772 21.701 10.5067 21.9254C10.5067 22.0168 10.5067 22.124 10.5067 22.2193C10.5067 22.4635 10.4867 22.8328 10.599 22.9242C10.6062 22.929 10.6146 22.9325 10.6236 22.9345C10.6326 22.9366 10.6421 22.9371 10.6514 22.9361C10.9507 22.9361 11.1727 22.4734 11.1727 22.0585C11.1702 21.5482 11.1228 21.2324 10.8759 21.2324Z" fill="#111111"/>
    <path d="M28.7146 25.8333C27.753 25.8333 27.5 24.0082 27.5 23.0361C27.5 22.803 27.6053 20.8333 28.5648 20.8333C29.5243 20.8333 30 21.9988 30 23.0781C29.998 24.0991 29.7267 25.8333 28.7146 25.8333ZM27.9049 23.0361C27.9049 23.7681 28.1073 25.3671 28.7146 25.3671C29.3543 25.3671 29.5931 23.9685 29.5931 23.0757C29.5931 22.183 29.2308 21.2972 28.5628 21.2972C28.1113 21.2972 27.9231 22.4744 27.9028 23.0548L27.9049 23.0361Z" fill="#111111"/>
    <path d="M29.0151 25C28.6966 25 28.489 24.7342 28.398 24.2084C28.3486 23.8678 28.3275 23.5239 28.3347 23.1801V23.1451C28.3347 23.0404 28.3347 22.1614 28.6828 21.818C28.7289 21.7703 28.7844 21.7323 28.8459 21.7063C28.9075 21.6803 28.9738 21.6668 29.0408 21.6667C29.6341 21.6667 30 22.2216 30 23.0792C30 23.7272 29.7033 25 29.0151 25ZM29.0408 22.0547C29.0259 22.0548 29.0113 22.0581 28.9979 22.0645C28.9846 22.0709 28.9729 22.0802 28.9636 22.0916C28.7876 22.2643 28.7283 22.8289 28.7303 23.1432V23.1801C28.723 23.5044 28.7422 23.8288 28.7876 24.1502C28.8371 24.4373 28.9241 24.6178 29.0151 24.6178C29.284 24.6178 29.6084 23.7874 29.6084 23.085C29.6044 22.5689 29.4304 22.0547 29.0408 22.0547Z" fill="#111111"/>
    <path d="M28.9653 24.1667C28.8894 24.167 28.8142 24.1602 28.7443 24.1465C28.6743 24.1329 28.611 24.1128 28.5583 24.0875C28.2807 23.9556 28.3217 23.702 28.3628 23.4323C28.3628 23.3516 28.388 23.274 28.388 23.2051C28.388 22.9119 28.388 22.5 29.1072 22.5C30 22.5 30 23.0555 30 23.2652C30 23.5701 29.7887 24.1447 28.9937 24.1652L28.9653 24.1667ZM29.1072 22.7932C29.0331 22.9276 29.0055 23.0666 29.0252 23.2051C29.0252 23.2798 29.0252 23.3648 28.9968 23.4543C28.9584 23.592 28.9584 23.7314 28.9968 23.8691C29.164 23.8324 29.3691 23.5495 29.3691 23.2652C29.3691 22.8752 29.2271 22.7932 29.1072 22.7932Z" fill="#111111"/>
    <path d="M14.1667 17.5L13.8178 17.359C13.5422 17.2443 13.2772 17.1113 13.0251 16.9613C12.5265 16.6762 12.1338 16.4528 11.0799 16.4528H10.8333L10.91 16.2452C10.9283 16.1946 11.3776 15 12.3895 15C13.5475 15 13.9237 16.5558 14.0479 17.0675C14.0607 17.115 14.0699 17.153 14.0753 17.1768L14.1667 17.5ZM11.3466 16.1439C12.0257 16.1491 12.6848 16.3441 13.226 16.6999C13.3539 16.7728 13.4854 16.8473 13.6315 16.9202C13.3411 15.8571 12.9228 15.32 12.3858 15.32C11.8489 15.32 11.5018 15.8413 11.3466 16.1439Z" fill="#111111"/>
    <path d="M14.1667 17.5L13.7521 17.1736C13.7412 17.1736 12.6659 16.3207 11.9056 16.3207H11.6667L11.7318 16.0444C11.7409 16.0009 11.9853 15 12.7619 15C13.5385 15 13.9766 16.7406 14.0291 16.9299L14.1667 17.5ZM12.1754 15.9117C12.6432 16.0199 13.0937 16.2175 13.5095 16.497C13.3285 15.9878 13.0425 15.4352 12.7655 15.4352C12.6397 15.4414 12.5177 15.4892 12.413 15.5733C12.3083 15.6573 12.2248 15.7744 12.1717 15.9117H12.1754Z" fill="#111111"/>
    <path d="M14.1667 16.6667L13.2416 16.0942C12.9495 15.9119 12.3823 15.6363 12.0902 15.6363L11.6667 15.649L11.8687 15.3247C11.9412 15.2226 12.0432 15.1389 12.1645 15.0819C12.2859 15.025 12.4223 14.9968 12.56 15.0003C12.9982 15.0003 13.4291 15.5685 13.5922 15.8144L14.1667 16.6667Z" fill="#111111"/>
    <path d="M23.3333 20.8333L24.1291 19.8429C24.6684 19.1736 27.4175 15.8333 28.5136 15.8333C29.4892 15.8333 29.897 16.7347 29.9759 17.2134L30 17.3605L29.8597 17.4289C28.4062 18.1396 27.514 18.5478 26.8629 18.8462C26.0154 19.2091 25.2033 19.6418 24.436 20.1392L23.3333 20.8333ZM28.5049 16.2478C27.9568 16.2478 26.4573 17.777 25.2691 19.1487C25.6812 18.9249 26.0649 18.7488 26.6634 18.4753C27.2619 18.2018 28.1388 17.7977 29.5002 17.1346C29.4168 16.8507 29.1647 16.2478 28.5049 16.2478Z" fill="#111111"/>
    <path d="M25.8333 19.1667L26.2062 18.59C26.333 18.3977 27.4571 16.6677 28.3818 16.6677C28.4917 16.6621 28.6015 16.6799 28.7044 16.7199C28.8074 16.7599 28.9012 16.8213 28.9802 16.9003C29.1018 17.0394 29.1683 17.2205 29.1666 17.4078V17.5231L25.8333 19.1667ZM28.3725 17.0521C27.9493 17.0521 27.3695 17.6538 26.95 18.1863L28.7789 17.2886C28.7643 17.2417 28.7394 17.1989 28.7062 17.1636C28.661 17.1236 28.6086 17.0931 28.5519 17.074C28.4953 17.0548 28.4356 17.0474 28.3762 17.0521H28.3725Z" fill="#111111"/>
    <path d="M25.8333 18.3333L26.7267 17.6453C27.1076 17.3495 28.0402 16.6667 28.5088 16.6667H28.5226C29.0212 16.6821 29.162 16.9057 29.1667 17.0227V17.1345L25.8333 18.3333Z" fill="#111111"/>
    <path d="M14.0898 35L13.4989 33.6673C13.4064 33.466 11.2557 28.5721 13.5659 25.7799C15.5137 23.4266 15.4487 22.6395 15.4074 22.1563C15.4074 22.0879 15.3975 22.0235 15.3975 21.955C15.3975 21.5323 14.9111 19.8614 14.6925 19.2816C14.6078 19.0622 14.6255 18.9032 14.7417 18.8106C14.8579 18.718 15.1001 18.7461 15.3916 18.9515C15.6811 19.0823 16.4374 19.3299 16.7289 19.0119C17.0972 18.6092 17.0893 15.4507 16.6048 14.6495C16.5418 14.5468 16.4276 14.3535 16.5753 14.2207C16.723 14.0878 16.8786 14.1864 17.4753 14.6696C18.0209 15.1105 18.9308 15.8493 19.3227 15.8493C19.8781 15.8493 20.7329 15.4044 21.4183 15.044C22.2809 14.5931 22.7457 14.3676 23.0352 14.5226C23.3779 14.7058 23.1238 15.2051 22.5665 16.2982C22.0091 17.3913 21.05 19.2816 21.6487 19.7346C22.3715 20.2822 22.6531 20.1372 22.9525 19.9661C23.1057 19.8666 23.2813 19.809 23.4626 19.799C23.6379 19.7955 23.8079 19.8611 23.9372 19.9822C23.9816 20.0302 24.0159 20.0869 24.0383 20.1488C24.0606 20.2107 24.0704 20.2766 24.0672 20.3425C24.0452 20.5613 23.9555 20.7672 23.8112 20.9304C23.628 21.18 23.4173 21.4639 23.498 22.1765C23.563 22.7502 23.8919 23.6843 24.2248 24.5922C24.6187 25.6632 24.9752 26.6738 24.9968 27.3079C25.0556 29.4818 24.2948 31.5957 22.8717 33.2124L22.2061 33.9894L22.5231 33.0372C22.7477 32.3789 23.0254 31.2013 22.8166 30.849C22.8074 30.8299 22.7938 30.8133 22.777 30.8007C22.7602 30.7881 22.7407 30.7798 22.7201 30.7765C22.1292 30.6899 20.9476 31.312 20.534 31.5596L20.2799 31.7126L20.2385 31.4146C20.1499 30.7946 19.7363 29.1841 18.8953 29.1841C17.8397 29.1841 17.0854 30.8852 17.0795 30.9033L16.9554 31.1852L16.7584 30.9557C16.3291 30.4705 15.045 29.2868 14.271 29.6512C13.5836 29.9733 13.6565 32.2159 13.8633 33.5566L14.0898 35ZM22.6098 30.3698C22.6692 30.3694 22.7285 30.3741 22.7871 30.3839C22.8648 30.3955 22.9391 30.4248 23.0042 30.4698C23.0693 30.5148 23.1237 30.5742 23.1632 30.6436C23.3602 30.9818 23.2913 31.628 23.1751 32.1857C24.1468 30.7742 24.6462 29.0795 24.599 27.3542C24.5773 26.7845 24.2051 25.7578 23.8506 24.7633C23.4961 23.7689 23.1711 22.8791 23.1022 22.259C23.0037 21.3873 23.2853 21.0048 23.4961 20.725C23.5906 20.6268 23.6526 20.5008 23.6733 20.3647C23.6752 20.3528 23.6745 20.3406 23.6711 20.3291C23.6676 20.3176 23.6617 20.307 23.6536 20.2982C23.597 20.255 23.5272 20.2336 23.4567 20.2379C23.3404 20.2507 23.2289 20.2921 23.1317 20.3586C22.793 20.5418 22.3301 20.7935 21.4084 20.0949C20.5399 19.4366 21.4675 17.6128 22.212 16.1492C22.4323 15.7523 22.6219 15.3383 22.7792 14.9112C22.5546 14.9373 21.9914 15.2333 21.5975 15.4386C20.8373 15.8412 19.9727 16.2841 19.3227 16.2841C18.8343 16.2841 18.0859 15.7104 17.2311 15.0179L17.1228 14.9293C17.4694 16.1613 17.5167 18.7743 17.0164 19.3179C16.4768 19.9218 15.3404 19.4024 15.2124 19.344L15.1809 19.3259C15.1542 19.3048 15.1259 19.286 15.0962 19.2695C15.3089 19.8735 15.7914 21.484 15.7914 21.9872C15.792 22.0404 15.7952 22.0935 15.8013 22.1463C15.8446 22.6798 15.9214 23.5736 13.8672 26.0537C12.4709 27.7427 12.8825 30.3678 13.3374 32.0105C13.304 30.9134 13.4241 29.619 14.1134 29.2949C15.0844 28.8419 16.3724 29.9934 16.8707 30.4866C17.1543 29.9511 17.8889 28.7916 18.919 28.7916C20.014 28.7916 20.4611 30.4021 20.6009 31.0825C21.0303 30.8228 21.952 30.3618 22.6098 30.3618V30.3698Z" fill="#111111"/>
    <path d="M13.7936 32.5L13.5347 31.4086C13.5073 31.2926 12.876 28.5554 13.9994 27.1947C14.2759 26.8584 14.5523 26.5576 14.817 26.2665C15.5581 25.4564 16.1894 24.7563 16.3228 23.8597C16.4188 23.1734 16.2071 22.1764 16.0522 21.4508C15.8718 20.6053 15.7973 20.2553 16.0816 20.1688C16.2403 20.1315 16.4047 20.1248 16.5659 20.1491C16.8776 20.1746 17.1737 20.1982 17.4913 19.8817C17.8089 19.5651 17.8011 18.3597 17.8089 17.5475C17.8089 16.8416 17.8226 16.4936 17.9187 16.3323C17.9407 16.2913 17.9714 16.2555 18.0087 16.2277C18.046 16.1998 18.0889 16.1805 18.1344 16.1711C18.3187 16.1357 18.4893 16.2596 18.7226 16.4346C19.0235 16.7039 19.3949 16.8813 19.7931 16.9458C20.246 16.9832 20.9165 16.6115 21.4537 16.3107C21.991 16.0098 22.4066 15.7739 22.7046 15.8466C22.7454 15.8554 22.7835 15.8736 22.8158 15.9C22.8482 15.9263 22.8739 15.9599 22.8909 15.998C22.987 16.2104 22.8321 16.5152 22.4439 17.2467C21.9145 18.2417 21.1126 19.746 21.7067 20.3575C22.4066 21.0772 22.7517 20.9986 23.0791 20.9238C23.2462 20.8732 23.423 20.8631 23.5947 20.8943C23.6539 20.904 23.7103 20.9266 23.7598 20.9606C23.8092 20.9946 23.8506 21.0391 23.881 21.091C23.9829 21.2876 23.881 21.5216 23.7771 21.7891C23.6641 22.0056 23.6055 22.2466 23.6065 22.4911C23.6925 22.8342 23.7992 23.1717 23.9261 23.5018C24.4025 24.8645 25.1966 27.1455 24.9554 28.5456C24.6261 30.4668 24.3672 31.0075 24.2261 31.33L23.8673 32.0988L23.8516 31.2513C23.8516 31.216 23.8222 30.3527 23.1497 30.2032C22.5615 30.0715 21.6008 30.8699 21.2832 31.1864L21.0185 31.4539L20.9518 31.0842C20.9518 31.0606 20.5401 28.8917 19.3421 28.8917C18.105 28.8917 17.4482 30.3507 17.4403 30.3645L17.2972 30.689L17.1011 30.396C17.1011 30.3802 16.0738 28.9074 14.8209 29.2161C14.3288 29.3361 14.0073 30.6044 13.919 31.3792L13.7936 32.5ZM19.3461 28.5102C20.544 28.5102 21.0793 29.9968 21.2636 30.685C21.6871 30.3153 22.5399 29.6743 23.2379 29.8296C23.4338 29.8757 23.6152 29.9697 23.7661 30.1031C23.9169 30.2366 24.0325 30.4054 24.1025 30.5946C24.3081 29.9044 24.4653 29.2007 24.5731 28.4886C24.7966 27.1888 24.0222 24.9687 23.5595 23.6414C23.4215 23.2865 23.3082 22.9226 23.2203 22.552C23.2081 22.2393 23.2755 21.9287 23.4163 21.6494C23.4724 21.5336 23.512 21.4105 23.534 21.2837H23.5065C23.3927 21.2685 23.2769 21.2786 23.1673 21.3132C22.7909 21.3977 22.2772 21.5098 21.4243 20.6387C20.6303 19.8207 21.4773 18.2299 22.0949 17.0678C22.2459 16.8005 22.3814 16.5248 22.5007 16.2419C22.2013 16.3517 21.9136 16.4913 21.642 16.6587C21.0283 17.0029 20.3303 17.3942 19.7578 17.343C19.2857 17.274 18.8437 17.0691 18.4853 16.7531C18.4069 16.6941 18.305 16.6174 18.2403 16.5801C18.2048 16.9065 18.191 17.235 18.1991 17.5633C18.1873 18.81 18.1481 19.7932 17.7658 20.1727C17.6063 20.3315 17.4107 20.449 17.1959 20.5151C16.981 20.5812 16.7534 20.5939 16.5325 20.5522C16.449 20.5467 16.3652 20.5467 16.2816 20.5522C16.3172 20.8339 16.3676 21.1135 16.4326 21.3899C16.5933 22.145 16.8247 23.1793 16.709 23.9364C16.5678 24.953 15.8895 25.6943 15.1052 26.5536C14.8425 26.8407 14.57 27.1436 14.2994 27.466C13.7112 28.1759 13.6798 29.3715 13.7543 30.2465C13.9328 29.6369 14.2347 28.9861 14.7347 28.87C15.911 28.5849 16.8482 29.4973 17.2384 29.9614C17.5188 29.4501 18.2246 28.5161 19.3519 28.5161L19.3461 28.5102Z" fill="#111111"/>
    <path d="M23.7171 31.6667L23.6394 29.7774C23.6369 29.5742 23.5525 29.3799 23.404 29.235C23.2554 29.0901 23.0542 29.0058 22.8423 28.9999C22.0452 28.9656 21.6766 29.8748 21.6726 29.8844L21.5132 30.2798L21.3139 29.8978C21.3139 29.8787 20.3176 28.0811 19.1798 28.0448H19.134C18.0021 28.0448 17.0337 29.2788 17.0237 29.2903L16.8245 29.5367L16.677 29.2655C16.4778 28.8834 15.7963 27.9283 15.1088 27.9588C14.9454 27.9588 14.5847 28.1499 13.7976 28.9751C13.6661 29.1126 13.6123 29.1661 13.4928 29.1394L13.3772 29.1107L13.3333 28.9445L13.3533 28.891C13.3752 28.828 13.9172 27.3189 14.6146 26.7229C15.0988 26.3084 16.5754 25.0476 16.5754 24.1956C16.5615 23.84 16.5269 23.4854 16.4718 23.1335C16.3522 22.2548 16.2406 21.4143 16.5933 21.0895C16.7632 20.9401 16.952 20.8117 17.1553 20.7075C17.4422 20.547 17.5936 20.4553 17.5996 20.2796C17.5996 20.2528 17.7989 17.5326 18.0958 17.1945L18.2951 16.9634L18.4246 17.2403C18.5096 17.402 18.6398 17.5379 18.8005 17.633C18.9613 17.7281 19.1463 17.7787 19.3352 17.779C19.7338 17.779 20.2977 17.4199 20.752 17.1314C21.1505 16.8774 21.4674 16.6787 21.7105 16.6673C21.7553 16.6643 21.8002 16.6728 21.8405 16.6919C21.8807 16.711 21.915 16.7401 21.9396 16.7761C22.0552 16.9442 21.9516 17.1582 21.6088 17.8325C21.2103 18.6119 20.6125 19.7925 20.9054 20.3541C21.2601 21.0131 22.0014 21.0838 22.4996 21.1182C22.7706 21.1449 22.934 21.1602 23.0216 21.2844C23.1093 21.4085 23.0754 21.5193 23.0436 21.76C22.8758 22.7706 23.0496 23.8061 23.5397 24.7152C24.536 26.6637 24.0518 29.6609 24.0299 29.787L23.7171 31.6667ZM19.134 27.6685H19.1937C20.2479 27.699 21.1147 28.8452 21.4813 29.4145C21.7045 29.0706 22.1469 28.5835 22.8622 28.616C23.027 28.6171 23.1897 28.6517 23.3394 28.7175C23.4892 28.7834 23.6227 28.879 23.731 28.998C23.8147 27.9913 23.8486 26.1728 23.191 24.8967C22.6634 23.9204 22.4762 22.8076 22.657 21.7218C22.657 21.6569 22.6749 21.5843 22.6789 21.5308C22.6211 21.5212 22.5394 21.5136 22.4677 21.506C21.9615 21.4601 21.019 21.3722 20.5647 20.5279C20.1662 19.7944 20.8038 18.5622 21.2661 17.6625C21.3578 17.4829 21.4654 17.2805 21.5311 17.1238C21.3737 17.2021 21.1725 17.3301 20.9871 17.4486C20.4611 17.7809 19.8653 18.1592 19.3492 18.1592C19.1566 18.1619 18.9656 18.1255 18.7887 18.0524C18.6119 17.9793 18.4531 17.8712 18.323 17.7351C18.1689 18.5822 18.0631 19.4367 18.0061 20.2948C17.9902 20.6769 17.6714 20.8679 17.3645 21.036C17.1903 21.1246 17.0283 21.2337 16.8823 21.3608C16.6691 21.5633 16.7886 22.442 16.8823 23.08C16.9413 23.4476 16.9772 23.8182 16.9899 24.1899C16.9899 25.0953 15.87 26.1689 14.8956 27.0018C14.5727 27.3266 14.3135 27.7045 14.1304 28.1174C14.4731 27.8156 14.8139 27.5901 15.1008 27.573C15.9298 27.5233 16.6113 28.3963 16.8942 28.8376C17.2529 28.444 18.1097 27.6551 19.13 27.6551L19.134 27.6685Z" fill="#111111"/>
    <path d="M16.4156 30L16.9575 28.5638C17.0219 28.3796 17.0093 28.1786 16.9223 28.0031C16.8352 27.8276 16.6806 27.6914 16.4909 27.623C15.8633 27.3342 14.7629 27.8637 14.3989 28.0924L14.1667 27.7594C14.9533 27.2399 17.0077 25.6853 17.0704 24.7506C17.0863 24.3108 17.0562 23.8707 16.9805 23.4367C16.8801 22.7246 16.7838 22.0506 17.2064 21.5231C17.8508 20.7207 18.7127 19.1862 18.4365 18.3016C18.3675 18.077 18.3006 17.8623 18.4867 17.768C18.6729 17.6738 18.7901 17.8162 18.9742 18.0288C19.0746 18.1452 19.3403 18.4561 19.4491 18.4681C19.5934 18.4521 19.9449 18.1672 20.1792 17.9787C20.5432 17.6818 20.7587 17.5153 20.9554 17.5013C20.995 17.4972 21.0351 17.503 21.0718 17.5181C21.1084 17.5332 21.1404 17.5571 21.1646 17.5875C21.2775 17.7219 21.2211 17.9044 21.0495 18.44C20.7985 19.2303 20.3298 20.7027 21.0139 21.0677C21.698 21.4328 22.06 21.4689 22.2482 21.487C22.3282 21.4799 22.4086 21.4951 22.4798 21.5307C22.5511 21.5662 22.6101 21.6207 22.6499 21.6876C22.7087 21.7815 22.7281 21.8933 22.7043 22.0005C22.6897 22.1128 22.6604 22.3234 22.8675 23.0456C22.993 23.4622 23.1475 23.8703 23.3298 24.2672C23.6339 24.9009 23.8451 25.5718 23.9575 26.261C24.086 27.1377 24.1559 28.0215 24.1667 28.9068V29.8235L23.7671 28.989C23.7671 28.989 23.4386 28.3251 23.0119 28.3873C22.6583 28.4354 22.175 29.0994 21.9658 29.5066L21.7566 29.9077L21.5872 29.5066C21.5872 29.4845 20.7106 27.4385 19.5328 27.4385C18.3236 27.4385 17.3487 28.7604 17.3382 28.7744L16.4156 30ZM19.5202 27.0092C20.6395 27.0092 21.4533 28.313 21.7901 28.967C22.0411 28.5898 22.4784 28.0402 22.9491 27.9781C23.092 27.9635 23.2364 27.9809 23.3711 28.0289C23.5058 28.077 23.627 28.1543 23.7252 28.2549C23.7022 27.7695 23.6499 27.0634 23.5349 26.3132C23.4266 25.6569 23.2239 25.0183 22.9324 24.4156C22.7419 24.0034 22.5812 23.5791 22.4512 23.1459C22.2211 22.3435 22.2566 22.0928 22.2775 21.9423C22.2794 21.927 22.2794 21.9115 22.2775 21.8962H22.2001C21.9909 21.8781 21.5725 21.846 20.7964 21.4288C19.8173 20.9053 20.3299 19.2966 20.6374 18.3337C20.6646 18.2475 20.6918 18.1572 20.7169 18.075C20.6227 18.1452 20.5223 18.2274 20.4407 18.2936C20.0893 18.5804 19.7566 18.8492 19.4784 18.8773C19.3643 18.8711 19.2531 18.841 19.1526 18.789C19.0521 18.737 18.9648 18.6644 18.8968 18.5764C18.9826 19.9364 17.5934 21.6956 17.5286 21.7859C17.2148 22.187 17.2943 22.7467 17.3863 23.3906C17.4676 23.8543 17.4992 24.3248 17.4805 24.7947C17.4282 25.567 16.4658 26.5158 15.6248 27.2018C15.9735 27.1203 16.3402 27.1485 16.6709 27.282C16.8462 27.3537 17.0018 27.4634 17.1253 27.6027C17.2487 27.742 17.3367 27.9069 17.3821 28.0844C17.8257 27.613 18.5955 27.0092 19.5202 27.0092Z" fill="#111111"/>
    <path d="M23.3195 29.1667L22.9612 27.7099C22.9612 27.7099 22.8271 27.191 22.5186 27.229C22.3079 27.2531 21.9553 27.9464 21.7522 28.5776L21.6047 29.0565L21.3958 28.6036C21.1851 28.1428 20.4819 26.9285 19.7729 26.8403C18.8934 26.7301 18.0082 27.4835 18.0006 27.4915L17.4506 27.9684L17.6978 27.2671C17.7405 27.162 17.7422 27.0436 17.7024 26.9372C17.6627 26.8308 17.5847 26.745 17.4851 26.698C17.1153 26.5137 16.6114 26.7822 16.6076 26.7842L15 27.6558L16.3968 26.4536C16.4121 26.4395 17.9469 25.101 17.6921 23.9389C17.4795 22.9901 17.6049 21.9928 18.0446 21.1336C18.1347 20.9452 18.3301 20.286 18.4872 19.755C18.8379 18.5688 18.8475 18.5528 18.9988 18.5207C19.052 18.5121 19.1064 18.5229 19.1528 18.5514C19.1993 18.5799 19.2349 18.6242 19.2537 18.677C19.2824 18.7331 19.3131 18.7952 19.5104 18.8132C19.6076 18.7615 19.6962 18.6938 19.7729 18.6129C19.9377 18.4566 20.0929 18.3103 20.273 18.3364C20.3035 18.3405 20.3328 18.3512 20.3592 18.3678C20.3856 18.3843 20.4084 18.4064 20.4263 18.4325C20.5164 18.5648 20.4857 18.7692 20.3803 19.3382C20.2883 19.8352 20.1504 20.5846 20.2692 20.8831C20.388 21.1817 20.844 21.352 21.2272 21.5043C21.6104 21.6566 21.871 21.7688 21.9496 21.9872C22.0013 22.1275 22.076 22.436 22.1718 22.8288C22.276 23.3154 22.4078 23.7952 22.5665 24.2655C22.7581 24.6983 23.3502 26.5417 23.333 27.6618L23.3195 29.1667ZM19.6043 26.4275C19.6786 26.4272 19.7528 26.4319 19.8266 26.4416C20.593 26.5357 21.2291 27.4775 21.551 28.0305C21.7426 27.5396 22.0741 26.8764 22.4861 26.8283C22.6319 26.8107 22.7791 26.8453 22.9038 26.9265C22.7625 26.0727 22.5365 25.2365 22.2293 24.4318C22.0576 23.9398 21.9174 23.4364 21.8097 22.925C21.7254 22.5763 21.6449 22.2457 21.6028 22.1234C21.4458 22.0158 21.2757 21.9309 21.0969 21.871C20.6562 21.6906 20.1063 21.4702 19.9339 21.0314C19.7614 20.5926 19.9089 19.8652 20.022 19.2581C20.045 19.1278 20.0718 18.9836 20.091 18.8573L20.0469 18.8994C19.8764 19.0597 19.702 19.226 19.497 19.206C19.3608 19.1985 19.2288 19.1543 19.1138 19.0777C19.0448 19.2901 18.9528 19.5987 18.8743 19.8672C18.7428 20.3557 18.5867 20.8366 18.4068 21.3079C18.0109 22.0833 17.8972 22.9824 18.0868 23.8387C18.2784 24.7424 17.6652 25.6661 17.1805 26.2232C17.3493 26.218 17.517 26.253 17.671 26.3254C17.7876 26.3787 17.8896 26.4616 17.9679 26.5666C18.0462 26.6715 18.0982 26.7952 18.1193 26.9265C18.5635 26.6258 19.0758 26.4537 19.6043 26.4275Z" fill="#111111"/>
    <path d="M21.7797 28.3333L21.395 27.3371C21.395 27.3256 20.8957 26.0689 20.1152 25.97C19.3347 25.8711 18.7022 26.5157 18.6966 26.5233L18.2306 27.0233L18.3767 26.3522C18.4247 26.143 18.4691 25.6905 18.3378 25.5118C18.1345 25.6483 17.9482 25.8099 17.783 25.9928L17.5 25.7495C17.6202 25.5593 18.3804 24.1752 18.2102 23.3957C17.9957 22.4184 18.4266 21.5818 18.6319 21.1788C18.6611 21.1257 18.6876 21.0711 18.7114 21.0153C18.754 20.8822 18.8168 20.5628 18.8779 20.2547C19.0184 19.5265 19.0628 19.384 19.1257 19.3041C19.1491 19.2779 19.1777 19.2573 19.2097 19.2439C19.2417 19.2304 19.2761 19.2243 19.3107 19.2261C19.4531 19.2261 19.5566 19.3573 19.6565 19.4809L19.675 19.5037C19.751 19.4466 19.8222 19.383 19.8877 19.3136C19.9839 19.2166 20.0727 19.1235 20.2058 19.1881C20.339 19.2527 20.3223 19.3478 20.2853 19.6254C20.1133 20.9107 20.2225 21.2833 20.3427 21.367C20.5389 21.4934 20.7464 21.6003 20.9623 21.6864C21.2822 21.8233 21.5837 21.9545 21.7317 22.1808C21.8796 22.407 21.9776 22.8918 22.072 23.3634C22.1107 23.5802 22.1607 23.7947 22.2218 24.006C22.3531 24.3862 22.9024 26.1145 22.9264 26.1887L23.3333 27.4739L22.5935 26.3522C22.4837 26.1695 22.3206 26.0271 22.1275 25.9453C22.1076 25.9418 22.0873 25.9427 22.0678 25.9479C22.0484 25.9532 22.0302 25.9626 22.0146 25.9757C21.8093 26.1392 21.7335 26.8237 21.7446 27.2591L21.7797 28.3333ZM19.9432 25.5784C20.0161 25.5782 20.089 25.5826 20.1614 25.5917C20.7292 25.6639 21.1546 26.1621 21.4191 26.5765C21.4672 26.2305 21.5726 25.8559 21.789 25.6772C21.8446 25.6325 21.9087 25.6002 21.9772 25.5825C22.0457 25.5648 22.117 25.5621 22.1866 25.5746C22.2441 25.5847 22.3001 25.6026 22.3531 25.6278C22.1681 25.0764 21.9443 24.3558 21.8685 24.1391C21.8003 23.9113 21.7453 23.6796 21.7039 23.4451C21.6299 23.0648 21.519 22.5591 21.4191 22.3975C21.3192 22.2359 21.0695 22.1503 20.8143 22.04C20.5746 21.9453 20.3448 21.8262 20.1281 21.6845C19.7582 21.4278 19.7823 20.654 19.884 19.8117C19.7973 19.8775 19.6897 19.9074 19.5825 19.8954C19.4956 19.8802 19.4438 19.8174 19.368 19.7224C19.3273 19.8935 19.2792 20.1407 19.2441 20.3251C19.1775 20.6597 19.1165 20.9772 19.0591 21.1312C19.0296 21.2078 18.995 21.2821 18.9556 21.3537C18.7706 21.7149 18.3841 22.4678 18.5672 23.3082C18.6874 23.8558 18.4543 24.5859 18.2139 25.143C18.2585 25.1146 18.3106 25.1013 18.363 25.1047C18.4153 25.1081 18.4653 25.1281 18.5061 25.162C18.7373 25.3369 18.7891 25.6715 18.7836 25.9548C19.1256 25.7148 19.529 25.5838 19.9432 25.5784Z" fill="#111111"/>
    <path d="M18.6057 26.6667L18.882 25.5427C18.9675 25.203 18.9615 24.8198 18.8701 24.7842C18.8475 24.7765 18.823 24.7765 18.8005 24.7842C18.7786 24.8038 18.7627 24.8291 18.7548 24.8573L18.7309 24.9501L18.3333 24.8751C18.3395 24.8307 18.3501 24.787 18.3651 24.7447C18.4824 24.2686 18.6256 23.524 18.5759 23.2593C18.4844 22.7674 18.9217 21.3037 19.037 21.0746C19.0827 20.9185 19.1074 20.7571 19.1106 20.5946C19.1075 20.444 19.1346 20.2942 19.1901 20.1541L19.2776 20L19.4406 20.0692C19.5223 20.1069 19.6109 20.1277 19.701 20.1304L19.8043 20.0632L19.9117 20.1304C20.0429 20.2074 20.0329 20.3279 20.0131 20.5985C19.9932 20.8691 19.9594 21.3235 20.0985 21.5052C20.2119 21.6533 20.5299 21.7956 20.8102 21.922C21.1799 22.0879 21.5298 22.2459 21.6729 22.4909C21.816 22.7358 22.5754 25.2701 22.4939 25.5052C22.4402 25.6652 22.2752 25.6652 22.154 25.6612C21.8697 25.6612 21.7842 25.6948 21.7564 25.8193C21.7286 25.9437 21.665 26.0523 21.5576 26.0741C21.3887 26.1096 21.2972 25.9733 21.1899 25.8153C20.9652 25.4815 20.7108 25.1615 20.2874 25.2227C19.4704 25.3491 19.2318 25.6968 19.2299 25.7008L18.6057 26.6667ZM20.4126 24.8138C20.9533 24.8138 21.2873 25.2287 21.4761 25.4993C21.5523 25.4155 21.6466 25.3501 21.752 25.308C21.8574 25.2659 21.9711 25.2482 22.0844 25.2563C21.9592 24.6795 21.5 22.961 21.335 22.6884C21.2575 22.5541 20.9374 22.4099 20.6551 22.2815C20.3152 22.1294 19.9654 21.9714 19.7904 21.7442C19.5598 21.4459 19.5916 20.9185 19.6254 20.5689C19.6246 20.5538 19.6246 20.5386 19.6254 20.5235C19.5907 20.5205 19.5561 20.5152 19.5221 20.5077C19.5221 20.5472 19.5221 20.5886 19.5121 20.6242C19.5091 20.8385 19.4701 21.0508 19.3968 21.2524C19.2855 21.4716 18.9039 22.8326 18.9714 23.1882C18.9934 23.592 18.9545 23.9968 18.8561 24.3892C18.9078 24.3944 18.9586 24.4064 19.0072 24.4247C19.2796 24.5274 19.3412 24.8395 19.3372 25.1259C19.6176 24.9772 19.9226 24.8795 20.2377 24.8376C20.2952 24.8246 20.3537 24.8166 20.4126 24.8138Z" fill="#111111"/>
    <path d="M21.3941 25C21.2935 24.9899 21.1981 24.9553 21.1187 24.9001C20.8733 24.7376 20.5649 24.6671 20.2608 24.704C20.0505 24.728 19.8823 24.7521 19.7414 24.7706C19.2536 24.8372 18.9844 24.8742 18.8162 24.6133C18.7796 24.555 18.7591 24.4899 18.7566 24.4233C18.754 24.3568 18.7694 24.2906 18.8015 24.2303C18.8015 24.2173 18.8141 24.2007 18.8183 24.1896L18.7994 24.1748C18.7358 24.1224 18.6652 24.077 18.5891 24.0397C18.5399 24.022 18.4956 23.9952 18.4593 23.961C18.423 23.9268 18.3956 23.8861 18.3788 23.8417C18.2548 23.4716 18.402 22.2282 18.608 21.8951C18.6376 21.8434 18.6789 21.7976 18.7296 21.7606C18.7803 21.7237 18.8391 21.6964 18.9024 21.6805C19.1463 21.6232 19.3902 21.7545 19.6257 21.8803C19.6762 21.9081 19.7267 21.9358 19.7771 21.9599L19.8928 22.0154C20.8789 22.4928 21.2049 22.7185 21.2343 22.9406C21.2343 23.0035 21.3058 23.2163 21.3689 23.4235C21.5644 24.0693 21.7011 24.5448 21.659 24.7632C21.6548 24.809 21.6371 24.8531 21.6076 24.891C21.5781 24.929 21.5378 24.9595 21.4908 24.9796C21.4606 24.9924 21.4276 24.9994 21.3941 25ZM20.429 24.3246C20.7144 24.3249 20.9941 24.3954 21.2364 24.5282C21.1923 24.2562 21.0535 23.788 20.9694 23.5179C20.8853 23.2477 20.8369 23.0849 20.8243 22.9961C20.7591 22.8906 20.3806 22.6704 19.6972 22.3411L19.5774 22.2819L19.4134 22.1967C19.2914 22.132 19.0853 22.0228 19.0181 22.0376C19.0024 22.0463 18.9906 22.0593 18.9844 22.0746C18.8351 22.3133 18.7048 23.3884 18.7742 23.7103C18.8806 23.7611 18.9794 23.8233 19.0685 23.8954C19.1437 23.9489 19.1956 24.0235 19.2155 24.1068C19.2354 24.19 19.2221 24.2768 19.1779 24.3524C19.1547 24.4079 19.1568 24.4097 19.1653 24.4227V24.4375C19.3277 24.4431 19.4903 24.43 19.6489 24.3986C19.794 24.3783 19.9685 24.3542 20.1809 24.3302C20.2634 24.3247 20.3464 24.3247 20.429 24.3302V24.3246Z" fill="#111111"/>
    <path d="M20.9792 24.1667C20.8509 24.1667 20.7063 24.1667 20.5475 24.1509C20.4477 24.1509 20.3581 24.141 20.293 24.141C19.9447 24.141 19.4784 23.5203 19.23 23.1557C19.1221 22.9803 19.1669 22.3241 19.2544 22.0285C19.2675 21.9601 19.2953 21.8951 19.336 21.8377C19.3767 21.7803 19.4294 21.7319 19.4906 21.6955C19.5727 21.6695 19.6595 21.6609 19.7453 21.6704C19.8311 21.68 19.9137 21.7073 19.9875 21.7506C20.3255 21.8866 21.1543 22.3596 21.246 22.6256C21.2622 22.671 21.2989 22.7498 21.3437 22.8483C21.6471 23.5065 21.751 23.8336 21.5942 24.0149C21.4801 24.1253 21.2724 24.1667 20.9792 24.1667ZM20.3133 23.7469C20.3764 23.7469 20.4681 23.7469 20.5699 23.7588C20.7981 23.7806 21.0279 23.7806 21.2561 23.7588C21.186 23.4985 21.0891 23.2456 20.967 23.004C20.9161 22.8917 20.8753 22.8069 20.857 22.7478C20.5095 22.4479 20.1068 22.2139 19.6698 22.0581C19.5794 22.3497 19.5503 22.6559 19.5843 22.9587C19.8531 23.3528 20.185 23.7272 20.3011 23.7469H20.3133Z" fill="#111111"/>
    <path d="M20.4604 24.1667C20.3696 24.1652 20.279 24.158 20.1891 24.1451L20.0791 24.1325C20.0051 24.1325 19.8343 24.1199 19.2234 23.3198C19.206 23.2869 19.1939 23.2518 19.1874 23.2155C19.1598 23.0445 19.1598 22.8705 19.1874 22.6995V22.6671C19.186 22.6588 19.186 22.6503 19.1874 22.642C19.2028 22.6069 19.2271 22.5761 19.2583 22.5523C19.2894 22.5284 19.3263 22.5123 19.3657 22.5053C19.6275 22.4532 20.2479 22.7984 20.3238 22.8649C20.3997 22.9315 20.9196 23.7154 20.8209 23.9725C20.7792 24.1289 20.6312 24.1667 20.4604 24.1667ZM20.1303 23.7765L20.2366 23.7891C20.2897 23.7891 20.3789 23.8053 20.4472 23.8089C20.3449 23.5686 20.2178 23.3385 20.0677 23.122C19.9029 23.023 19.7273 22.9411 19.5441 22.8775C19.543 22.967 19.5481 23.0565 19.5592 23.1454C19.7254 23.3744 19.9168 23.586 20.1303 23.7765Z" fill="#111111"/>
    <path d="M24.5109 16.6667L24.1667 16.4759C24.4559 15.974 31.2801 4.16673 34.2329 4.16673C34.486 4.16455 34.7364 4.21601 34.9668 4.31753C35.1972 4.41904 35.4019 4.56814 35.5667 4.75442C37.0677 6.37058 36.6034 10.8489 36.5837 11.0378L36.1903 10.9996C36.1903 10.9538 36.6565 6.50033 35.2716 5.01011C35.1441 4.86338 34.9846 4.74586 34.8047 4.66602C34.6247 4.58618 34.4288 4.546 34.231 4.54835C31.9726 4.55408 26.4486 13.2989 24.5109 16.6667Z" fill="#111111"/>
    <path d="M15.4633 15C14.4298 11.6332 11.2487 2.89492 8.94358 2.89492C8.7399 2.89632 8.53871 2.94047 8.3527 3.02457C8.1667 3.10868 7.99993 3.23092 7.86287 3.3836C6.21917 5.05904 6.22507 10.3247 6.22704 10.3766H5.83334C5.83334 10.1532 5.8235 4.8915 7.58531 3.09837C7.75942 2.90999 7.96975 2.75971 8.20335 2.6568C8.43694 2.55389 8.68886 2.50053 8.94358 2.5C12.0066 2.5 15.6837 14.3797 15.8333 14.8843L15.4633 15Z" fill="#111111"/>
    <path d="M25.3394 15.8333L25 15.6106C25.8277 14.5242 33.0847 5 34.7795 5C36.5694 5 36.6605 9.00876 36.6667 9.4658H36.2528C36.2404 8.40648 35.9486 5.38344 34.7795 5.38344C33.6662 5.38732 28.3978 11.8033 25.3394 15.8333Z" fill="#111111"/>
    <path d="M14.6142 13.3333C13.5882 10.6567 10.5798 3.71005 8.85606 3.71005C7.1672 3.71005 6.39355 7.46029 6.24375 8.905L5.83334 8.86922C5.85796 8.64318 6.44897 3.33333 8.85401 3.33333C11.1811 3.33333 14.6163 12.1975 15 13.209L14.6142 13.3333Z" fill="#111111"/>
</svg>
