<svg width="40" height="40" viewBox="0 0 40 40" fill="none" xmlns="http://www.w3.org/2000/svg">
    <path d="M16.0851 37.5L15.8906 37.37C15.8478 37.3433 11.5548 34.5334 11.5548 28.5448C11.5548 26.2129 12.4457 25.2189 13.2335 24.3397C13.8988 23.598 14.4745 22.9577 14.4745 21.6158C14.4745 18.5384 11.7863 17.7165 10.1952 17.7165H10.0007V17.5253C10.0007 17.4469 9.94036 15.5928 10.9732 14.5434C11.2 14.3147 11.4728 14.135 11.7742 14.0159C12.0757 13.8967 12.3991 13.8407 12.7239 13.8515C14.5912 13.8515 15.1573 15.8031 15.5327 17.101C15.6494 17.5024 15.8439 18.1657 15.9743 18.2001C16.2038 17.9401 15.8575 15.9656 15.6708 14.899C15.3926 13.3106 15.3168 12.7811 15.4763 12.588C15.4996 12.5596 15.5293 12.5369 15.5631 12.5217C15.5968 12.5064 15.6337 12.499 15.6708 12.5001C16.3244 12.5001 17.1122 13.1576 17.9466 13.8515C18.7247 14.509 19.5475 15.1895 20.1486 15.2105C20.7107 15.2278 21.3818 14.8283 22.0937 14.4096C22.9185 13.9165 23.8541 13.3583 24.8714 13.3182C24.9784 13.3182 25.3071 13.301 25.455 13.5418C25.665 13.8821 25.3402 14.4364 24.8481 15.2736C24.2762 16.2465 23.4865 17.5788 23.4865 18.827C23.4858 18.8846 23.4903 18.9422 23.5001 18.999C23.7063 18.8805 24.177 18.3147 24.5602 17.8522C25.7137 16.4645 27.2951 14.5645 28.7364 14.899C29.6662 15.115 30.3392 16.2026 30.7944 18.223L30.8333 18.3988L30.6563 18.4485C30.6057 18.4619 25.5464 19.884 25.241 21.7458C24.9298 23.6381 25.5153 24.8233 26.0832 25.9682C26.5034 26.8169 26.9002 27.6178 26.9002 28.6442C26.9002 31.1291 23.6226 36.1601 19.8218 36.1601H19.4327L19.6681 35.8523C20.8683 34.2983 22.1151 32.4366 22.156 31.9816C21.8058 32.0084 21.4518 32.2836 21.1095 32.5551C20.7204 32.8494 20.3314 33.1553 19.9015 33.1553H19.707V32.9641C19.6662 31.6261 19.3997 30.592 19.1993 30.5805C18.9893 30.5805 18.5302 31.3795 18.2832 31.8096C17.8552 32.5551 17.5985 32.9775 17.2872 33.0138L17.1394 33.031L17.0849 32.8953C16.7212 32.0027 15.9918 30.7449 15.5697 30.8768C15.2468 31.1119 15.7097 33.8071 15.9334 35.1011C16.1765 36.5251 16.2621 37.0814 16.1843 37.2821L16.0851 37.5ZM10.3858 17.3399C12.1365 17.4049 14.8597 18.3625 14.8597 21.6177C14.8597 23.1049 14.21 23.8293 13.5214 24.5958C12.7433 25.4617 11.94 26.3581 11.94 28.5448C11.94 33.398 14.8577 36.0817 15.8011 36.831C15.7583 36.4487 15.6436 35.772 15.5385 35.1604C15.0017 32.0294 14.8675 30.6914 15.4393 30.5098C16.2466 30.2537 17.0519 31.867 17.3456 32.5379C17.5638 32.2466 17.7589 31.9392 17.9291 31.6185C18.3765 30.8386 18.7578 30.1677 19.2149 30.1944C19.8685 30.2346 20.0357 31.8421 20.0785 32.7328C20.3633 32.6134 20.6262 32.4487 20.8566 32.2454C21.2709 31.9243 21.6969 31.5936 22.1988 31.5936C22.2595 31.5909 22.3197 31.6055 22.3722 31.6357C22.4246 31.6659 22.4671 31.7104 22.4944 31.7637C22.7512 32.2703 21.2806 34.3518 20.2186 35.7529C23.5759 35.4031 26.5015 30.8405 26.5015 28.6404C26.5015 27.7095 26.1241 26.9469 25.7234 26.1383C25.1574 24.9914 24.5174 23.7012 24.8461 21.6885C25.1593 19.777 29.4192 18.416 30.3645 18.1351C29.9522 16.4147 29.3725 15.4457 28.6372 15.2679C27.4351 14.9888 25.879 16.8563 24.852 18.0911C24.0194 19.0946 23.6674 19.496 23.3406 19.3832C23.0877 19.2953 23.0877 18.9532 23.0877 18.8251C23.0877 17.4756 23.9008 16.0917 24.4941 15.0806C24.7897 14.5759 25.1943 13.8859 25.1048 13.7425C25.1048 13.7253 25.0309 13.6948 24.8695 13.7024C23.9533 13.7387 23.1013 14.2472 22.2785 14.7384C21.5199 15.1933 20.806 15.6215 20.1194 15.5947C19.3861 15.5661 18.5185 14.8435 17.6821 14.1459C16.9896 13.5724 16.2777 12.976 15.7681 12.8939C15.7525 13.1997 15.912 14.1 16.0404 14.8359C16.3808 16.7741 16.5792 18.0739 16.2524 18.4562C16.2186 18.4971 16.1759 18.53 16.1274 18.5525C16.0789 18.575 16.0259 18.5865 15.9723 18.5862C15.5463 18.5862 15.3888 18.0127 15.1456 17.208C14.7819 15.956 14.2839 14.2414 12.7103 14.2414C12.438 14.2313 12.1667 14.277 11.9135 14.3758C11.6603 14.4745 11.4308 14.6241 11.2397 14.8149C10.5025 15.5756 10.3975 16.8773 10.3858 17.3399Z" fill="white"/>
    <path d="M28.6559 27.4999C28.1074 27.5045 27.5771 27.2823 27.1686 26.8767C26.2871 26.0223 25.8989 24.4824 25.8372 23.3265C25.7738 22.2107 26.4594 19.336 28.4509 19.1752C30.4425 19.0143 31.5127 21.1573 31.6523 23.2199C31.7403 24.3589 31.4189 25.4904 30.7581 26.3681C30.5223 26.6862 30.2319 26.9493 29.9038 27.1421C29.5756 27.335 29.2162 27.4539 28.8464 27.4918C28.7811 27.4979 28.7194 27.4999 28.6559 27.4999ZM26.1927 23.3023C26.249 24.3276 26.6009 25.8012 27.4008 26.5751C27.5917 26.7635 27.8154 26.9065 28.0581 26.9953C28.3008 27.0842 28.5573 27.117 28.8119 27.0918C29.1341 27.0575 29.447 26.9528 29.7324 26.7837C30.0179 26.6146 30.2704 26.3845 30.4752 26.1067C31.0733 25.3095 31.3639 24.2831 31.2841 23.2501C31.1535 21.3182 30.2321 19.4305 28.4691 19.5752C26.7061 19.7199 26.1365 22.2992 26.1927 23.3023Z" fill="white"/>
    <path d="M10.1155 25.8333C10.0408 25.8333 9.96613 25.8333 9.89146 25.8333C9.58736 25.8093 9.291 25.7158 9.02087 25.559C8.75074 25.4021 8.51264 25.1851 8.32143 24.9215C7.57467 23.9106 7.42349 22.3194 7.53095 21.1609C7.63477 20.0408 8.74216 17.3194 10.7384 17.5095C11.0782 17.5362 11.4095 17.6396 11.7121 17.8134C12.0146 17.9872 12.282 18.2278 12.4978 18.5204C13.1299 19.3615 13.4249 20.6655 13.3084 22.101C13.1408 24.1795 11.7055 25.8333 10.1155 25.8333ZM7.8934 21.1831C7.79687 22.2122 7.92619 23.7367 8.60192 24.6465C8.76291 24.868 8.96322 25.0502 9.19039 25.1821C9.41756 25.3139 9.66674 25.3924 9.92242 25.4128C11.3996 25.5564 12.7838 24.0157 12.9459 22.0444C13.0552 20.7141 12.7893 19.5171 12.2173 18.759C12.0313 18.5081 11.8011 18.3019 11.5409 18.1531C11.2807 18.0044 10.9958 17.916 10.7038 17.8936C8.95891 17.7218 7.98447 20.1783 7.89158 21.1831H7.8934Z" fill="white"/>
    <path d="M15.8604 37.5L15.3754 37.0399C15.3371 37.0024 11.4349 33.2345 11.604 28.3213C11.6663 26.5144 12.6102 25.371 13.4554 24.3718C14.0974 23.5977 14.6529 22.9302 14.6529 22.1285C14.6529 18.7714 13.1536 17.0592 10.2012 17.0592H10V16.8618C10.0302 15.8013 10.5917 13.7969 12.5055 13.7969C13.9143 13.7969 14.4738 15.3906 14.9205 16.6702C15.2184 17.5075 15.5243 18.3725 15.9489 18.3725C15.9839 18.3737 16.0188 18.3668 16.0506 18.3524C16.0824 18.338 16.1103 18.3165 16.1321 18.2895C16.5627 17.7859 16.1844 15.6236 15.957 14.34C15.8582 13.8563 15.791 13.3668 15.7557 12.8747C15.7471 12.803 15.7619 12.7305 15.7981 12.6677C15.8343 12.6048 15.8899 12.5549 15.957 12.5252C16.2468 12.4008 16.6432 12.7385 17.5126 13.5126C18.3176 14.2215 19.3923 15.1911 20.0081 15.1911C20.6239 15.1911 21.8073 14.571 22.7773 14.0754C24.0552 13.4197 24.6831 13.1117 24.9911 13.2973C25.0414 13.3269 25.0826 13.3694 25.1102 13.4202C25.1379 13.4709 25.1509 13.5281 25.148 13.5856C25.148 13.866 24.8703 14.4308 24.3833 15.4083C23.7956 16.5794 22.8156 18.5403 23.1295 19.032C23.1456 19.0597 23.1919 19.1327 23.375 19.1327C24.1035 19.1327 24.8743 18.2204 25.6914 17.2567C26.6634 16.1074 27.6697 14.9206 28.8792 14.9206C30.0887 14.9206 30.7246 17.3811 30.789 17.6615L30.8333 17.859L30.6321 17.9044C30.5757 17.9183 24.9347 19.3026 24.9347 22.1502C24.9347 23.8307 25.5062 25.0708 26.0114 26.1649C26.4139 27.0338 26.758 27.7842 26.758 28.5938C26.758 30.3711 23.4274 36.0979 20.626 36.0979H20.2235L20.465 35.782C21.6463 34.2298 22.7934 32.3024 22.5861 31.8936C22.5861 31.8798 22.56 31.8463 22.4493 31.8463C22.1566 31.8276 21.8635 31.8779 21.5947 31.993C21.3258 32.1081 21.0889 32.2846 20.9037 32.5078C20.7317 32.6937 20.5331 32.854 20.314 32.9837L20.0222 33.1417V32.8139C20.0001 31.7969 19.7445 30.3553 19.2373 30.3415C18.7121 30.3415 18.1023 31.6192 17.8085 32.2373C17.5831 32.7112 17.5187 32.8297 17.406 32.887L17.2047 32.966L17.1282 32.7685C16.927 32.2629 16.2669 30.9063 15.6511 30.6989C15.5979 30.6781 15.5405 30.6699 15.4834 30.675C15.4264 30.6802 15.3714 30.6985 15.323 30.7285C14.7193 31.0781 15.1942 34.53 15.7255 36.8681L15.8604 37.5ZM10.4266 16.6584C12.5921 16.7216 15.0554 17.7504 15.0554 22.1205C15.0554 23.0645 14.4295 23.8169 13.7674 24.6127C12.9624 25.5724 12.0648 26.6605 12.0064 28.3351C11.8797 32.024 14.1417 35.0493 15.1661 36.2342C14.8159 34.53 14.194 30.9023 15.1057 30.379C15.2048 30.321 15.3158 30.2855 15.4307 30.2749C15.5456 30.2643 15.6614 30.279 15.7698 30.3178C16.4581 30.5508 17.0538 31.6567 17.3315 32.2531C17.3617 32.1879 17.3959 32.1208 17.4261 32.0556C17.8286 31.2005 18.4464 29.9189 19.2373 29.9327C20.1248 29.9584 20.3422 31.6014 20.3965 32.4209C20.469 32.3577 20.5394 32.2866 20.6119 32.2234C20.8337 31.9621 21.115 31.7556 21.4331 31.6204C21.7512 31.4853 22.0972 31.4253 22.4432 31.4454C22.5434 31.4369 22.6438 31.4577 22.7319 31.5052C22.82 31.5526 22.8918 31.6245 22.9383 31.712C23.3066 32.4288 21.7731 34.6642 21.0566 35.6437C23.4616 35.073 26.3495 30.0887 26.3495 28.58C26.3495 27.8553 26.0214 27.1404 25.6391 26.313C25.1178 25.1834 24.5262 23.9018 24.5262 22.1363C24.5262 19.267 29.2837 17.8373 30.3342 17.5569C30.133 16.8163 29.5755 15.3096 28.8651 15.3096C27.8448 15.3096 26.9009 16.4234 25.9872 17.5016C25.1078 18.5403 24.2786 19.5218 23.371 19.5218C23.2559 19.5303 23.1405 19.5082 23.0371 19.4578C22.9337 19.4074 22.846 19.3306 22.7833 19.2354C22.3808 18.6074 23.0732 17.1145 24.017 15.2286C24.333 14.5987 24.6872 13.8897 24.7355 13.631C24.4537 13.6547 23.5984 14.0931 22.9604 14.421C21.8475 14.9917 20.6944 15.5821 20.0041 15.5821C19.2333 15.5821 18.1727 14.6362 17.2389 13.8048C16.9053 13.4849 16.5466 13.1911 16.1663 12.9261C16.1783 13.1926 16.2649 13.6962 16.3675 14.2709C16.7177 16.2595 16.9713 17.9538 16.4541 18.5502C16.3944 18.6211 16.3194 18.6779 16.2344 18.7165C16.1494 18.7551 16.0567 18.7746 15.963 18.7733C15.2546 18.7733 14.9306 17.861 14.5543 16.7986C14.1196 15.5782 13.6285 14.1919 12.5116 14.1919C10.8291 14.18 10.485 16.0383 10.4186 16.6603L10.4266 16.6584Z" fill="white"/>
    <path d="M15.0524 35.8334C14.9753 35.8334 14.927 35.8334 14.8749 35.7055C14.8344 35.654 14.7912 35.6047 14.7457 35.5578C14.1283 34.8767 12.2377 32.8076 12.5946 27.9684C12.7065 26.4306 13.5592 25.3721 14.2634 24.5053C14.7534 23.9061 15.1778 23.3729 15.2569 22.8256C15.4074 21.7851 15.365 19.4304 14.1264 17.9345C13.401 17.0617 12.3612 16.6183 11.0397 16.6183H10.8333L10.8468 16.4046C10.8468 16.3827 11.0127 14.1618 13.048 14.1618C14.0936 14.1618 14.3984 15.3461 14.6994 16.4905C15.0139 17.6888 15.3109 18.8372 16.3354 18.8372C16.4447 18.8473 16.5548 18.8293 16.6558 18.7847C16.7567 18.7401 16.8455 18.6703 16.9141 18.5816C17.4446 17.8666 16.9295 15.8614 16.6209 14.6631C16.3971 13.7943 16.3431 13.5626 16.4569 13.4168C16.4796 13.3873 16.5093 13.3643 16.5431 13.3499C16.5768 13.3356 16.6136 13.3305 16.6498 13.335C16.8427 13.3489 17.0646 13.5566 17.5643 14.026C18.2183 14.6451 19.2079 15.5778 19.8967 15.5778C20.5468 15.5778 21.633 14.9926 22.5204 14.5233C23.2709 14.1238 23.7088 13.8942 23.9654 13.8942C24.0065 13.8933 24.0472 13.9035 24.0834 13.9238C24.1196 13.9441 24.15 13.9738 24.1718 14.01C24.2933 14.2097 24.1718 14.5153 23.6316 15.7516C23.0914 16.9878 22.1808 19.035 22.5532 19.6361C22.5956 19.706 22.6824 19.7979 22.9236 19.7979C23.9789 19.7979 24.9821 18.5037 25.8656 17.3613C26.6682 16.3248 27.3608 15.432 28.0842 15.418C29.3324 15.3921 29.8649 16.6703 29.9729 17.3473L29.9999 17.5211L29.8379 17.571C29.7839 17.589 24.3146 19.3205 24.3146 21.7332C24.3146 23.1212 24.7891 24.5292 25.2078 25.7715C25.5647 26.832 25.8734 27.7487 25.8348 28.4757C25.7557 29.9836 23.1126 35.0065 21.6214 35.5837L21.0696 35.7954L21.3918 35.2861C22.1152 34.1457 23.1782 32.1266 22.9506 31.5654C22.9411 31.5385 22.9244 31.5149 22.9026 31.4972C22.8808 31.4796 22.8547 31.4686 22.8271 31.4655C21.7854 31.2478 20.6799 32.3243 20.6703 32.3343L20.3751 32.6259L20.3442 32.2065C20.296 31.5734 19.9989 29.7659 19.2851 29.7659C18.5346 29.7659 17.8787 31.3856 17.6877 32.0107L17.5411 32.4941L17.3289 32.0367C17.3289 32.0167 16.4646 30.1873 15.1759 30.1873C15.1295 30.1867 15.0837 30.1981 15.0426 30.2204C15.0015 30.2427 14.9665 30.2753 14.9405 30.3151C14.3232 31.1499 15.091 34.9267 15.2473 35.5478C15.2567 35.5746 15.2613 35.6031 15.2608 35.6317V35.8314L15.0524 35.8334ZM14.8595 35.6876V35.6996V35.6876ZM11.25 16.2249C12.585 16.2728 13.648 16.7601 14.41 17.6769C15.7392 19.2746 15.7875 21.7831 15.6293 22.8876C15.5328 23.5446 15.0775 24.1098 14.5489 24.7629C13.8563 25.6197 13.0711 26.5903 12.9689 28.0004C12.6834 31.9668 13.9335 33.992 14.6859 34.9007C14.6531 34.7269 14.6164 34.5192 14.574 34.2736C14.4107 33.3888 14.3171 32.4918 14.2942 31.5913C14.2793 31.1816 14.3321 30.7723 14.4505 30.381C14.6261 29.8917 14.929 29.7819 15.1508 29.7819C16.2775 29.7819 17.08 30.8584 17.4408 31.4615C17.7147 30.7325 18.3533 29.3605 19.26 29.3605C20.2246 29.3605 20.5603 31.0101 20.6645 31.793C21.1024 31.4455 21.9841 30.8823 22.8773 31.0681C22.9671 31.0838 23.0514 31.123 23.1224 31.1821C23.1933 31.2412 23.2484 31.3182 23.2824 31.4056C23.5429 32.0507 22.8175 33.5486 22.2464 34.5652C23.568 33.1052 25.3602 29.68 25.4238 28.4477C25.4586 27.8006 25.1615 26.9179 24.8181 25.8973C24.3898 24.6251 23.9036 23.1831 23.9036 21.7272C23.9036 19.2506 28.553 17.565 29.5311 17.2395C29.427 16.8261 29.07 15.8115 28.0919 15.8115H28.0649C27.5228 15.8115 26.8534 16.6882 26.1357 17.6089C25.1981 18.8212 24.1332 20.2053 22.8927 20.2053C22.7579 20.2158 22.6227 20.1894 22.5008 20.1287C22.3789 20.0681 22.2746 19.9753 22.1982 19.8598C21.7487 19.1348 22.4085 17.4991 23.2496 15.5938C23.456 15.1284 23.6837 14.6132 23.7667 14.3435C23.3908 14.5038 23.0237 14.6851 22.667 14.8868C21.7506 15.3761 20.6105 15.9852 19.8658 15.9852C19.0266 15.9852 18.0138 15.0286 17.2729 14.3296C17.1186 14.1838 16.9411 14.018 16.8022 13.8982C16.8447 14.0859 16.9083 14.3375 16.9681 14.5692C17.3154 15.9193 17.8421 17.9644 17.1958 18.8332C17.0921 18.9692 16.9585 19.0776 16.8062 19.1492C16.6538 19.2207 16.487 19.2535 16.3199 19.2447C15.0003 19.2447 14.6338 17.8466 14.3116 16.6024C13.9894 15.3581 13.7329 14.5692 13.0326 14.5692C11.7033 14.5632 11.3464 15.7336 11.2596 16.2249H11.25Z" fill="white"/>
    <path d="M9.76644 25.8334C9.52646 25.83 9.29026 25.7747 9.07503 25.6714C8.85979 25.5681 8.67094 25.4195 8.52222 25.2362C7.675 24.2868 7.39874 22.4496 7.53176 21.538C7.83668 19.4341 9.45129 18.3334 10.8879 18.3334C12.2365 18.3334 13.3333 20.0432 13.3333 22.1451C13.3251 24.3167 11.4465 25.8334 9.76644 25.8334ZM10.8879 18.7255C9.66002 18.7255 8.22754 19.6212 7.93695 21.5897C7.81212 22.4417 8.09247 24.1415 8.83123 24.9735C8.94197 25.1136 9.08331 25.2281 9.24503 25.3086C9.40676 25.3891 9.58484 25.4338 9.76644 25.4393C11.2562 25.4393 12.9241 24.03 12.9241 22.1431C12.9159 20.29 11.9827 18.7255 10.8797 18.7255H10.8879Z" fill="white"/>
    <path d="M28.7794 26.6657C26.6043 26.6657 25.8333 24.7214 25.8333 23.0577C25.8333 21.5324 26.7509 20 28.807 20C29.8988 20 31.2794 20.5576 31.6448 23.2087C31.7361 23.8706 31.5619 25.1494 30.7102 25.9606C30.469 26.1908 30.1711 26.3733 29.8374 26.4951C29.5038 26.6169 29.1426 26.6752 28.7794 26.6657ZM28.8027 20.3507C26.925 20.3507 26.2538 21.8094 26.2538 23.0486C26.2538 23.3814 26.3239 26.297 28.7751 26.297C29.0782 26.3043 29.3795 26.2549 29.6574 26.1523C29.9354 26.0497 30.1831 25.8964 30.3831 25.7034C31.1371 24.984 31.2943 23.8077 31.2157 23.2321C30.9544 21.3238 30.1409 20.3507 28.8027 20.3507Z" fill="white"/>
    <path d="M10.4842 25C10.4128 25 10.3414 25 10.268 25C10.041 24.9787 9.82089 24.9129 9.62131 24.8067C9.42173 24.7005 9.2469 24.5561 9.1076 24.3824C8.26328 23.3726 8.29183 21.4177 8.36933 20.7491C8.49781 19.6844 9.76837 18.3334 11.0206 18.3334C12.1871 18.3334 13.3333 19.7765 13.3333 21.2451C13.3333 22.2118 12.854 23.6569 11.9648 24.4334C11.5648 24.7973 11.0349 25.0001 10.4842 25ZM8.77313 20.7863C8.70379 21.3746 8.67116 23.2275 9.42575 24.1196C9.52993 24.2536 9.66217 24.365 9.81392 24.4467C9.96568 24.5285 10.1336 24.5787 10.3068 24.5942C10.5579 24.6169 10.8111 24.5868 11.0488 24.5058C11.2866 24.4249 11.5031 24.2951 11.6834 24.1255C12.4849 23.4275 12.907 22.1118 12.907 21.2295C12.907 19.9824 11.9444 18.7099 11.0022 18.7099C9.9825 18.7099 8.87306 19.8863 8.75885 20.7804L8.77313 20.7863Z" fill="white"/>
    <path d="M28.686 26.6667C27.5161 26.6667 26.6667 25.1349 26.6667 23.0238C26.6667 21.6349 27.1582 20 28.5417 20C30.1051 20 30.8334 22.1131 30.8334 23.5417C30.8334 25.0496 29.9698 26.6667 28.686 26.6667ZM28.5417 20.3968C27.0656 20.3968 27.0229 22.756 27.0229 23.0238C27.0229 24.6369 27.5945 26.2698 28.686 26.2698C29.7419 26.2698 30.4773 24.8313 30.4773 23.5417C30.4773 22.252 29.8042 20.3968 28.5417 20.3968Z" fill="white"/>
    <path d="M10.0111 24.9996C9.81086 25.0042 9.61219 24.964 9.42981 24.8821C9.24743 24.8002 9.08601 24.6787 8.95756 24.5266C8.06597 23.5033 8.38982 21.1815 8.39382 21.1618C8.50776 20.4096 9.54728 19.1666 10.5168 19.1666C11.4324 19.1666 12.4999 19.8594 12.4999 21.807C12.4999 23.6557 11.4524 24.9996 10.0111 24.9996ZM8.78964 21.2231C8.71967 21.6744 8.58973 23.5132 9.25942 24.2732C9.3506 24.3822 9.4657 24.4692 9.59596 24.5275C9.72621 24.5858 9.86819 24.6139 10.0111 24.6097C11.2225 24.6097 12.1001 23.432 12.1001 21.809C12.1001 20.1523 11.2485 19.5645 10.5168 19.5645C9.78517 19.5645 8.8736 20.6293 8.78964 21.2231Z" fill="white"/>
    <path d="M28.6426 26.6667C27.0796 26.6667 26.6667 24.6824 26.6667 23.6323C26.6667 22.7907 26.8352 20.8334 28.3877 20.8334C29.8623 20.8334 30.8333 22.5262 30.8333 23.6458C30.8418 24.8638 30.1382 26.6667 28.6426 26.6667ZM28.3877 21.2194C27.1828 21.2194 27.088 23.0667 27.088 23.6323C27.088 24.3697 27.3682 26.2807 28.6426 26.2807C29.8791 26.2807 30.412 24.5434 30.412 23.6458C30.4205 22.6691 29.561 21.2194 28.3877 21.2194Z" fill="white"/>
    <path d="M28.9361 25.8334C27.8029 25.8334 27.5001 24.3857 27.5001 23.5232V23.3596C27.5001 22.7243 27.484 21.6635 28.0255 21.1399C28.1304 21.0391 28.2557 20.9599 28.3937 20.9073C28.5317 20.8547 28.6794 20.8297 28.8277 20.8338C30.1615 20.8338 30.8333 22.295 30.8333 23.1112C30.8313 24.8439 30.1394 25.8334 28.9361 25.8334ZM28.8277 21.2246C28.7323 21.2206 28.6371 21.2356 28.548 21.2687C28.4589 21.3019 28.378 21.3524 28.3103 21.4171C27.8871 21.8272 27.8952 22.7878 27.9092 23.3615V23.529C27.9092 23.5483 27.9212 25.4541 28.9441 25.4541C30.2437 25.4541 30.4382 23.993 30.4382 23.1228C30.4302 22.578 29.9529 21.2246 28.8277 21.2246Z" fill="white"/>
    <path d="M10.4817 24.1665C10.3431 24.169 10.2055 24.1422 10.0772 24.0876C9.94887 24.033 9.83256 23.9517 9.73532 23.8488C9.16479 23.2541 9.16675 21.971 9.16675 21.4252V21.3723C9.16675 20.6533 9.61419 19.1666 10.9975 19.1666C11.4489 19.1666 12.5001 19.3988 12.5001 21.5454C12.4981 23.2378 11.781 24.1665 10.4817 24.1665ZM10.9975 19.58C9.80176 19.58 9.55753 21.0057 9.55753 21.3784V21.4252C9.55753 21.8794 9.55753 23.085 10.0108 23.5616C10.0716 23.6276 10.1448 23.6798 10.2258 23.7148C10.3068 23.7499 10.394 23.7671 10.4817 23.7653C11.826 23.7653 12.1093 22.5657 12.1093 21.5576C12.1073 20.2806 11.7127 19.58 10.9956 19.58H10.9975Z" fill="white"/>
    <path d="M10.3576 24.1667C9.58968 24.1667 9.16675 23.36 9.16675 21.8937C9.16675 20.2457 10.0182 20.0007 10.5264 20.0007C10.6687 19.9952 10.8104 20.0238 10.9417 20.0844C11.073 20.1451 11.1908 20.2363 11.2869 20.3519C11.7229 20.8747 11.6709 21.81 11.6579 21.9223C11.6616 22.4615 11.5708 24.1667 10.3576 24.1667ZM10.5264 20.4091C10.2816 20.4091 9.53774 20.4091 9.53774 21.8937C9.53774 22.5901 9.64348 23.7582 10.3576 23.7582C11.2239 23.7582 11.2851 22.3471 11.2851 21.9203V21.9019C11.2851 21.9019 11.35 21.0442 11.0069 20.6317C10.9461 20.5586 10.8717 20.5009 10.7888 20.4624C10.7059 20.424 10.6164 20.4058 10.5264 20.4091Z" fill="white"/>
    <path d="M10.67 23.3331C10.5899 23.3356 10.5102 23.3191 10.4358 23.2846C10.3614 23.2501 10.294 23.1983 10.2376 23.1324C9.97544 22.8194 9.9928 22.2195 10.0067 21.74C10.0067 21.6437 10.0067 21.5514 10.0067 21.4691C10.0067 20.8792 10.2342 20.0004 10.8576 20.0004C10.9542 19.9968 11.0505 20.0165 11.1402 20.0583C11.2299 20.1001 11.3111 20.1631 11.3785 20.2432C11.5851 20.49 11.6806 20.9033 11.665 21.4751C11.6477 22.3299 11.3716 23.3331 10.67 23.3331ZM10.8628 20.4037C10.4825 20.4037 10.3592 21.124 10.3592 21.4711C10.3592 21.5574 10.3592 21.6537 10.3592 21.754C10.3488 22.1393 10.3331 22.6629 10.4929 22.8555C10.5158 22.8813 10.5431 22.9013 10.5729 22.9144C10.6028 22.9275 10.6346 22.9334 10.6666 22.9318C11.151 22.9318 11.3073 21.9727 11.3212 21.4651C11.3334 21.0197 11.2656 20.6846 11.1319 20.5241C11.0964 20.4843 11.0542 20.4533 11.0079 20.4329C10.9616 20.4126 10.9122 20.4033 10.8628 20.4057V20.4037Z" fill="white"/>
    <path d="M10.6489 23.3333C10.5729 23.3346 10.4973 23.3235 10.427 23.3006C10.3566 23.2777 10.2929 23.2436 10.2398 23.2002C9.99034 22.9897 9.99034 22.5946 10.0053 22.2074C10.0053 22.1121 10.0053 22.0089 10.0053 21.9314C10.0053 21.6991 10.0352 21.2662 10.352 21.0101C10.4193 20.954 10.5002 20.9093 10.5898 20.8789C10.6795 20.8486 10.776 20.833 10.8734 20.8334C11.6666 20.8334 11.6667 21.5998 11.6667 22.0565C11.6691 22.676 11.3124 23.3333 10.6489 23.3333ZM10.8759 21.2325C10.8449 21.2322 10.8141 21.2371 10.7857 21.2471C10.7573 21.257 10.7319 21.2717 10.7113 21.2901C10.5498 21.4756 10.4772 21.701 10.5067 21.9255C10.5067 22.0168 10.5067 22.124 10.5067 22.2193C10.5067 22.4635 10.4867 22.8329 10.599 22.9242C10.6062 22.929 10.6146 22.9325 10.6236 22.9346C10.6326 22.9366 10.6421 22.9372 10.6514 22.9361C10.9507 22.9361 11.1727 22.4735 11.1727 22.0585C11.1702 21.5482 11.1228 21.2325 10.8759 21.2325Z" fill="white"/>
    <path d="M28.7146 25.8334C27.753 25.8334 27.5 24.0082 27.5 23.0362C27.5 22.8031 27.6053 20.8334 28.5648 20.8334C29.5243 20.8334 30 21.9989 30 23.0781C29.998 24.0991 29.7267 25.8334 28.7146 25.8334ZM27.9049 23.0362C27.9049 23.7681 28.1073 25.3672 28.7146 25.3672C29.3543 25.3672 29.5931 23.9686 29.5931 23.0758C29.5931 22.183 29.2308 21.2972 28.5628 21.2972C28.1113 21.2972 27.9231 22.4744 27.9028 23.0548L27.9049 23.0362Z" fill="white"/>
    <path d="M29.015 25C28.6966 25 28.4889 24.7341 28.3979 24.2083C28.3485 23.8678 28.3274 23.5239 28.3346 23.18V23.1451C28.3346 23.0403 28.3347 22.1614 28.6827 21.818C28.7288 21.7703 28.7843 21.7322 28.8459 21.7062C28.9074 21.6802 28.9737 21.6667 29.0407 21.6666C29.634 21.6666 29.9999 22.2215 29.9999 23.0791C29.9999 23.7272 29.7033 25 29.015 25ZM29.0407 22.0547C29.0258 22.0547 29.0112 22.0581 28.9979 22.0645C28.9845 22.0709 28.9728 22.0801 28.9636 22.0915C28.7875 22.2642 28.7282 22.8288 28.7302 23.1431V23.18C28.723 23.5044 28.7421 23.8288 28.7875 24.1501C28.837 24.4373 28.924 24.6177 29.015 24.6177C29.284 24.6177 29.6083 23.7873 29.6083 23.0849C29.6044 22.5688 29.4303 22.0547 29.0407 22.0547Z" fill="white"/>
    <path d="M28.9652 24.1667C28.8893 24.167 28.8142 24.1602 28.7442 24.1465C28.6742 24.1329 28.611 24.1128 28.5583 24.0875C28.2807 23.9556 28.3217 23.702 28.3627 23.4323C28.3627 23.3516 28.3879 23.274 28.3879 23.2051C28.3879 22.9119 28.3879 22.5 29.1072 22.5C29.9999 22.5 29.9999 23.0555 29.9999 23.2652C29.9999 23.5701 29.7886 24.1447 28.9936 24.1652L28.9652 24.1667ZM29.1072 22.7932C29.0331 22.9276 29.0054 23.0666 29.0251 23.2051C29.0251 23.2798 29.0252 23.3648 28.9968 23.4543C28.9583 23.592 28.9583 23.7314 28.9968 23.8691C29.164 23.8324 29.369 23.5495 29.369 23.2652C29.369 22.8752 29.227 22.7932 29.1072 22.7932Z" fill="white"/>
    <path d="M14.1666 17.5L13.8177 17.359C13.5421 17.2443 13.2771 17.1113 13.025 16.9613C12.5264 16.6762 12.1337 16.4528 11.0798 16.4528H10.8333L10.91 16.2452C10.9282 16.1946 11.3775 15 12.3894 15C13.5474 15 13.9237 16.5558 14.0479 17.0675C14.0606 17.115 14.0698 17.153 14.0753 17.1768L14.1666 17.5ZM11.3465 16.1439C12.0256 16.1491 12.6847 16.3441 13.2259 16.6999C13.3538 16.7728 13.4853 16.8473 13.6314 16.9202C13.341 15.8571 12.9227 15.32 12.3858 15.32C11.8488 15.32 11.5017 15.8413 11.3465 16.1439Z" fill="white"/>
    <path d="M14.1667 17.5L13.7522 17.1736C13.7413 17.1736 12.666 16.3207 11.9057 16.3207H11.6667L11.7319 16.0444C11.741 16.0009 11.9854 15 12.762 15C13.5386 15 13.9767 16.7406 14.0292 16.9299L14.1667 17.5ZM12.1754 15.9117C12.6433 16.0199 13.0938 16.2175 13.5096 16.497C13.3286 15.9878 13.0426 15.4352 12.7656 15.4352C12.6398 15.4414 12.5178 15.4892 12.4131 15.5733C12.3083 15.6573 12.2249 15.7744 12.1718 15.9117H12.1754Z" fill="white"/>
    <path d="M14.1667 16.6667L13.2417 16.0942C12.9496 15.9119 12.3824 15.6363 12.0903 15.6363L11.6667 15.649L11.8688 15.3247C11.9413 15.2226 12.0433 15.1389 12.1646 15.0819C12.286 15.025 12.4224 14.9968 12.5601 15.0003C12.9983 15.0003 13.4292 15.5685 13.5923 15.8144L14.1667 16.6667Z" fill="white"/>
    <path d="M23.3333 20.8334L24.129 19.8429C24.6683 19.1736 27.4174 15.8334 28.5136 15.8334C29.4891 15.8334 29.8969 16.7347 29.9758 17.2134L29.9999 17.3605L29.8596 17.4289C28.4061 18.1396 27.5139 18.5478 26.8628 18.8462C26.0153 19.2091 25.2032 19.6418 24.436 20.1392L23.3333 20.8334ZM28.5048 16.2478C27.9567 16.2478 26.4572 17.777 25.269 19.1487C25.6812 18.925 26.0648 18.7488 26.6633 18.4753C27.2618 18.2018 28.1387 17.7977 29.5001 17.1347C29.4168 16.8508 29.1647 16.2478 28.5048 16.2478Z" fill="white"/>
    <path d="M25.8333 19.1666L26.2061 18.5899C26.3329 18.3977 27.457 16.6676 28.3817 16.6676C28.4916 16.6621 28.6014 16.6799 28.7043 16.7199C28.8073 16.7599 28.9011 16.8213 28.9801 16.9002C29.1017 17.0393 29.1682 17.2204 29.1666 17.4077V17.523L25.8333 19.1666ZM28.3724 17.0521C27.9492 17.0521 27.3694 17.6538 26.9499 18.1862L28.7788 17.2885C28.7642 17.2417 28.7393 17.1989 28.7061 17.1636C28.6609 17.1235 28.6085 17.0931 28.5519 17.0739C28.4952 17.0548 28.4355 17.0474 28.3761 17.0521H28.3724Z" fill="white"/>
    <path d="M25.8333 18.3333L26.7266 17.6453C27.1075 17.3495 28.0401 16.6666 28.5087 16.6666H28.5225C29.0211 16.6821 29.162 16.9057 29.1666 17.0227V17.1345L25.8333 18.3333Z" fill="white"/>
    <path d="M14.0898 35L13.4989 33.6673C13.4064 33.466 11.2557 28.5721 13.5659 25.7799C15.5137 23.4266 15.4487 22.6394 15.4074 22.1563C15.4074 22.0879 15.3975 22.0234 15.3975 21.955C15.3975 21.5322 14.9111 19.8614 14.6925 19.2816C14.6078 19.0622 14.6255 18.9031 14.7417 18.8105C14.8579 18.7179 15.1001 18.7461 15.3916 18.9514C15.6811 19.0823 16.4374 19.3299 16.7289 19.0118C17.0972 18.6092 17.0893 15.4506 16.6048 14.6494C16.5418 14.5467 16.4276 14.3535 16.5753 14.2206C16.723 14.0878 16.8786 14.1864 17.4753 14.6696C18.0209 15.1104 18.9308 15.8492 19.3227 15.8492C19.8781 15.8492 20.7329 15.4043 21.4183 15.044C22.2809 14.5931 22.7457 14.3676 23.0352 14.5226C23.3779 14.7058 23.1238 15.205 22.5665 16.2982C22.0091 17.3913 21.05 19.2816 21.6487 19.7345C22.3715 20.2821 22.6531 20.1372 22.9525 19.966C23.1057 19.8665 23.2813 19.809 23.4626 19.799C23.6379 19.7955 23.8079 19.8611 23.9372 19.9822C23.9816 20.0302 24.0159 20.0868 24.0383 20.1487C24.0606 20.2107 24.0704 20.2766 24.0672 20.3425C24.0452 20.5613 23.9555 20.7672 23.8112 20.9303C23.628 21.18 23.4173 21.4638 23.498 22.1765C23.563 22.7502 23.8919 23.6843 24.2248 24.5922C24.6187 25.6632 24.9752 26.6737 24.9968 27.3079C25.0556 29.4818 24.2948 31.5956 22.8717 33.2123L22.2061 33.9894L22.5231 33.0372C22.7477 32.3789 23.0254 31.2012 22.8166 30.8489C22.8074 30.8298 22.7938 30.8133 22.777 30.8007C22.7602 30.788 22.7407 30.7797 22.7201 30.7765C22.1292 30.6899 20.9476 31.3119 20.534 31.5596L20.2799 31.7126L20.2385 31.4146C20.1499 30.7946 19.7363 29.1841 18.8953 29.1841C17.8397 29.1841 17.0854 30.8852 17.0795 30.9033L16.9554 31.1851L16.7584 30.9556C16.3291 30.4705 15.045 29.2868 14.271 29.6511C13.5836 29.9732 13.6565 32.2158 13.8633 33.5565L14.0898 35ZM22.6098 30.3698C22.6692 30.3693 22.7285 30.374 22.7871 30.3839C22.8648 30.3954 22.9391 30.4248 23.0042 30.4697C23.0693 30.5147 23.1237 30.5741 23.1632 30.6436C23.3602 30.9818 23.2913 31.628 23.1751 32.1856C24.1468 30.7741 24.6462 29.0794 24.599 27.3542C24.5773 26.7845 24.2051 25.7578 23.8506 24.7633C23.4961 23.7688 23.1711 22.879 23.1022 22.259C23.0037 21.3873 23.2853 21.0048 23.4961 20.725C23.5906 20.6268 23.6526 20.5008 23.6733 20.3647C23.6752 20.3528 23.6745 20.3406 23.6711 20.3291C23.6676 20.3176 23.6617 20.307 23.6536 20.2982C23.597 20.2549 23.5272 20.2336 23.4567 20.2378C23.3404 20.2506 23.2289 20.2921 23.1317 20.3586C22.793 20.5418 22.3301 20.7934 21.4084 20.0949C20.5399 19.4366 21.4675 17.6127 22.212 16.1492C22.4323 15.7522 22.6219 15.3383 22.7792 14.9111C22.5546 14.9373 21.9914 15.2332 21.5975 15.4386C20.8373 15.8412 19.9727 16.2841 19.3227 16.2841C18.8343 16.2841 18.0859 15.7103 17.2311 15.0178L17.1228 14.9292C17.4694 16.1613 17.5167 18.7743 17.0164 19.3178C16.4768 19.9218 15.3404 19.4024 15.2124 19.344L15.1809 19.3259C15.1542 19.3048 15.1259 19.2859 15.0962 19.2695C15.3089 19.8734 15.7914 21.4839 15.7914 21.9872C15.792 22.0404 15.7952 22.0935 15.8013 22.1463C15.8446 22.6797 15.9214 23.5736 13.8672 26.0537C12.4709 27.7427 12.8825 30.3678 13.3374 32.0105C13.304 30.9133 13.4241 29.6189 14.1134 29.2948C15.0844 28.8419 16.3724 29.9933 16.8707 30.4866C17.1543 29.9511 17.8889 28.7915 18.919 28.7915C20.014 28.7915 20.4611 30.402 20.6009 31.0825C21.0303 30.8228 21.952 30.3617 22.6098 30.3617V30.3698Z" fill="white"/>
    <path d="M13.7935 32.5L13.5347 31.4087C13.5072 31.2927 12.8759 28.5555 13.9993 27.1947C14.2758 26.8585 14.5522 26.5576 14.8169 26.2666C15.558 25.4564 16.1894 24.7564 16.3227 23.8597C16.4188 23.1734 16.207 22.1765 16.0521 21.4509C15.8717 20.6053 15.7972 20.2553 16.0815 20.1688C16.2403 20.1316 16.4046 20.1249 16.5658 20.1491C16.8775 20.1747 17.1736 20.1983 17.4912 19.8817C17.8088 19.5651 17.801 18.3597 17.8088 17.5476C17.8088 16.8417 17.8226 16.4936 17.9186 16.3324C17.9406 16.2913 17.9713 16.2556 18.0086 16.2277C18.0459 16.1999 18.0888 16.1805 18.1343 16.1711C18.3186 16.1357 18.4892 16.2596 18.7225 16.4346C19.0234 16.704 19.3948 16.8814 19.793 16.9459C20.2459 16.9832 20.9164 16.6116 21.4537 16.3107C21.9909 16.0099 22.4065 15.7739 22.7045 15.8467C22.7453 15.8554 22.7834 15.8737 22.8158 15.9C22.8481 15.9263 22.8738 15.9599 22.8908 15.9981C22.9869 16.2105 22.832 16.5152 22.4438 17.2467C21.9144 18.2417 21.1125 19.746 21.7066 20.3576C22.4065 21.0773 22.7516 20.9986 23.079 20.9239C23.2461 20.8732 23.4229 20.8631 23.5947 20.8944C23.6539 20.904 23.7102 20.9267 23.7597 20.9607C23.8092 20.9947 23.8505 21.0392 23.8809 21.091C23.9829 21.2877 23.8809 21.5217 23.777 21.7891C23.664 22.0057 23.6054 22.2467 23.6064 22.4911C23.6924 22.8342 23.7991 23.1718 23.926 23.5018C24.4025 24.8645 25.1965 27.1456 24.9554 28.5456C24.626 30.4668 24.3671 31.0076 24.226 31.33L23.8672 32.0989L23.8515 31.2514C23.8515 31.216 23.8221 30.3527 23.1496 30.2033C22.5614 30.0715 21.6007 30.8699 21.2831 31.1865L21.0184 31.4539L20.9517 31.0842C20.9517 31.0606 20.54 28.8917 19.3421 28.8917C18.1049 28.8917 17.4481 30.3508 17.4402 30.3645L17.2971 30.689L17.1011 30.396C17.1011 30.3803 16.0737 28.9075 14.8208 29.2162C14.3287 29.3361 14.0072 30.6044 13.919 31.3792L13.7935 32.5ZM19.346 28.5102C20.5439 28.5102 21.0792 29.9968 21.2635 30.6851C21.687 30.3154 22.5398 29.6743 23.2378 29.8297C23.4337 29.8758 23.6151 29.9697 23.766 30.1032C23.9168 30.2366 24.0324 30.4055 24.1025 30.5946C24.308 29.9044 24.4653 29.2007 24.573 28.4886C24.7965 27.1888 24.0221 24.9687 23.5594 23.6414C23.4214 23.2866 23.3081 22.9226 23.2202 22.5521C23.208 22.2394 23.2754 21.9287 23.4162 21.6495C23.4723 21.5337 23.5119 21.4106 23.5339 21.2837H23.5064C23.3926 21.2685 23.2768 21.2786 23.1672 21.3132C22.7908 21.3978 22.2771 21.5099 21.4242 20.6387C20.6302 19.8207 21.4772 18.2299 22.0948 17.0678C22.2458 16.8006 22.3813 16.5248 22.5006 16.2419C22.2012 16.3517 21.9135 16.4914 21.6419 16.6588C21.0282 17.0029 20.3302 17.3942 19.7577 17.3431C19.2856 17.274 18.8436 17.0691 18.4853 16.7532C18.4068 16.6942 18.3049 16.6175 18.2402 16.5801C18.2047 16.9066 18.191 17.235 18.199 17.5633C18.1872 18.81 18.148 19.7932 17.7657 20.1727C17.6062 20.3315 17.4106 20.449 17.1958 20.5151C16.981 20.5812 16.7533 20.594 16.5325 20.5522C16.4489 20.5467 16.3651 20.5467 16.2815 20.5522C16.3172 20.8339 16.3676 21.1135 16.4325 21.3899C16.5933 22.145 16.8246 23.1793 16.7089 23.9364C16.5678 24.953 15.8894 25.6944 15.1051 26.5537C14.8424 26.8408 14.5699 27.1436 14.2993 27.4661C13.7111 28.1759 13.6797 29.3715 13.7543 30.2466C13.9327 29.637 14.2346 28.9861 14.7346 28.8701C15.9109 28.585 16.8481 29.4974 17.2383 29.9614C17.5187 29.4502 18.2245 28.5161 19.3519 28.5161L19.346 28.5102Z" fill="white"/>
    <path d="M23.717 31.6666L23.6393 29.7774C23.6368 29.5742 23.5524 29.3798 23.4039 29.2349C23.2553 29.09 23.0541 29.0058 22.8422 28.9999C22.0452 28.9655 21.6765 29.8748 21.6725 29.8844L21.5131 30.2798L21.3139 29.8977C21.3139 29.8786 20.3175 28.0811 19.1797 28.0448H19.1339C18.0021 28.0448 17.0336 29.2788 17.0237 29.2903L16.8244 29.5367L16.6769 29.2654C16.4777 28.8834 15.7962 27.9282 15.1087 27.9588C14.9453 27.9588 14.5846 28.1498 13.7975 28.9751C13.666 29.1126 13.6122 29.1661 13.4927 29.1393L13.3771 29.1107L13.3333 28.9445L13.3532 28.891C13.3751 28.828 13.9171 27.3189 14.6145 26.7229C15.0988 26.3083 16.5753 25.0476 16.5753 24.1956C16.5614 23.84 16.5268 23.4854 16.4717 23.1335C16.3521 22.2547 16.2405 21.4142 16.5932 21.0895C16.7631 20.94 16.9519 20.8117 17.1552 20.7074C17.4421 20.547 17.5936 20.4553 17.5995 20.2795C17.5995 20.2528 17.7988 17.5326 18.0957 17.1944L18.295 16.9633L18.4245 17.2403C18.5096 17.402 18.6397 17.5379 18.8004 17.633C18.9612 17.7281 19.1463 17.7786 19.3351 17.779C19.7337 17.779 20.2976 17.4199 20.7519 17.1314C21.1505 16.8773 21.4673 16.6787 21.7104 16.6672C21.7552 16.6642 21.8001 16.6727 21.8404 16.6919C21.8806 16.711 21.9149 16.7401 21.9395 16.7761C22.0551 16.9442 21.9515 17.1582 21.6088 17.8325C21.2102 18.6119 20.6124 19.7924 20.9053 20.354C21.26 21.0131 22.0013 21.0838 22.4995 21.1181C22.7705 21.1449 22.9339 21.1602 23.0216 21.2843C23.1092 21.4085 23.0754 21.5193 23.0435 21.76C22.8757 22.7706 23.0495 23.8061 23.5396 24.7152C24.536 26.6636 24.0518 29.6609 24.0298 29.7869L23.717 31.6666ZM19.1339 27.6684H19.1937C20.2478 27.699 21.1146 28.8452 21.4812 29.4144C21.7044 29.0706 22.1468 28.5835 22.8621 28.6159C23.0269 28.617 23.1896 28.6516 23.3393 28.7175C23.4891 28.7834 23.6226 28.879 23.7309 28.998C23.8146 27.9913 23.8485 26.1727 23.1909 24.8967C22.6633 23.9204 22.4761 22.8076 22.6569 21.7218C22.6569 21.6568 22.6748 21.5842 22.6788 21.5307C22.621 21.5212 22.5393 21.5136 22.4676 21.5059C21.9615 21.4601 21.0189 21.3722 20.5646 20.5279C20.1661 19.7943 20.8037 18.5622 21.266 17.6625C21.3577 17.4829 21.4653 17.2804 21.531 17.1238C21.3736 17.2021 21.1724 17.3301 20.9871 17.4485C20.461 17.7809 19.8652 18.1591 19.3491 18.1591C19.1565 18.1619 18.9655 18.1255 18.7886 18.0524C18.6118 17.9793 18.453 17.8712 18.3229 17.7351C18.1688 18.5821 18.063 19.4367 18.006 20.2948C17.9901 20.6769 17.6713 20.8679 17.3644 21.036C17.1902 21.1245 17.0282 21.2337 16.8822 21.3608C16.669 21.5632 16.7885 22.442 16.8822 23.08C16.9412 23.4475 16.9771 23.8182 16.9898 24.1898C16.9898 25.0953 15.8699 26.1689 14.8955 27.0017C14.5726 27.3265 14.3134 27.7045 14.1303 28.1174C14.4731 27.8155 14.8138 27.5901 15.1007 27.5729C15.9297 27.5232 16.6112 28.3962 16.8941 28.8375C17.2528 28.444 18.1097 27.6551 19.1299 27.6551L19.1339 27.6684Z" fill="white"/>
    <path d="M16.4157 30L16.9575 28.5638C17.022 28.3796 17.0094 28.1786 16.9223 28.0031C16.8353 27.8276 16.6807 27.6914 16.491 27.623C15.8634 27.3342 14.763 27.8637 14.399 28.0924L14.1667 27.7594C14.9534 27.2399 17.0078 25.6853 17.0705 24.7506C17.0864 24.3108 17.0563 23.8707 16.9806 23.4367C16.8801 22.7246 16.7839 22.0506 17.2065 21.5231C17.8509 20.7207 18.7128 19.1862 18.4366 18.3016C18.3676 18.077 18.3006 17.8623 18.4868 17.768C18.673 17.6738 18.7902 17.8162 18.9743 18.0288C19.0747 18.1452 19.3404 18.4561 19.4492 18.4681C19.5935 18.4521 19.945 18.1672 20.1793 17.9787C20.5433 17.6818 20.7588 17.5153 20.9554 17.5013C20.9951 17.4972 21.0352 17.503 21.0718 17.5181C21.1085 17.5332 21.1404 17.5571 21.1647 17.5875C21.2776 17.7219 21.2211 17.9044 21.0496 18.44C20.7985 19.2303 20.3299 20.7027 21.014 21.0677C21.6981 21.4328 22.06 21.4689 22.2483 21.487C22.3283 21.4799 22.4087 21.4951 22.4799 21.5307C22.5511 21.5662 22.6102 21.6207 22.65 21.6876C22.7088 21.7815 22.7282 21.8933 22.7044 22.0005C22.6898 22.1128 22.6605 22.3234 22.8676 23.0456C22.9931 23.4622 23.1476 23.8703 23.3299 24.2672C23.634 24.9009 23.8452 25.5718 23.9575 26.261C24.0861 27.1377 24.156 28.0215 24.1667 28.9068V29.8235L23.7672 28.989C23.7672 28.989 23.4387 28.3251 23.0119 28.3873C22.6584 28.4354 22.1751 29.0994 21.9659 29.5066L21.7567 29.9077L21.5873 29.5066C21.5873 29.4845 20.7107 27.4385 19.5329 27.4385C18.3237 27.4385 17.3488 28.7604 17.3383 28.7744L16.4157 30ZM19.5203 27.0092C20.6396 27.0092 21.4534 28.313 21.7902 28.967C22.0412 28.5898 22.4785 28.0402 22.9492 27.9781C23.0921 27.9635 23.2365 27.9809 23.3712 28.0289C23.5059 28.077 23.6271 28.1543 23.7253 28.2549C23.7023 27.7695 23.65 27.0634 23.5349 26.3132C23.4267 25.6569 23.224 25.0183 22.9324 24.4156C22.742 24.0034 22.5812 23.5791 22.4513 23.1459C22.2211 22.3435 22.2567 22.0928 22.2776 21.9423C22.2795 21.927 22.2795 21.9115 22.2776 21.8962H22.2002C21.991 21.8781 21.5726 21.846 20.7965 21.4288C19.8174 20.9053 20.3299 19.2966 20.6375 18.3337C20.6647 18.2475 20.6918 18.1572 20.717 18.075C20.6228 18.1452 20.5224 18.2274 20.4408 18.2936C20.0893 18.5804 19.7567 18.8492 19.4785 18.8773C19.3644 18.8711 19.2532 18.841 19.1527 18.789C19.0522 18.737 18.9649 18.6644 18.8969 18.5764C18.9827 19.9364 17.5935 21.6956 17.5287 21.7859C17.2149 22.187 17.2944 22.7467 17.3864 23.3906C17.4677 23.8543 17.4993 24.3248 17.4806 24.7947C17.4283 25.567 16.4659 26.5158 15.6249 27.2018C15.9735 27.1203 16.3402 27.1485 16.6709 27.282C16.8463 27.3537 17.0019 27.4634 17.1253 27.6027C17.2488 27.742 17.3367 27.9069 17.3822 28.0844C17.8257 27.613 18.5956 27.0092 19.5203 27.0092Z" fill="white"/>
    <path d="M23.3195 29.1667L22.9612 27.71C22.9612 27.71 22.8271 27.191 22.5186 27.2291C22.3079 27.2531 21.9553 27.9464 21.7522 28.5776L21.6047 29.0565L21.3958 28.6037C21.1851 28.1428 20.4819 26.9285 19.7729 26.8403C18.8934 26.7301 18.0082 27.4836 18.0006 27.4916L17.4506 27.9685L17.6978 27.2671C17.7405 27.162 17.7422 27.0436 17.7024 26.9373C17.6627 26.8309 17.5847 26.745 17.4851 26.6981C17.1153 26.5137 16.6114 26.7822 16.6076 26.7842L15 27.6559L16.3968 26.4536C16.4121 26.4396 17.9469 25.1011 17.6921 23.9389C17.4795 22.9901 17.6049 21.9928 18.0446 21.1336C18.1347 20.9453 18.3301 20.2861 18.4872 19.7551C18.8379 18.5688 18.8475 18.5528 18.9988 18.5207C19.052 18.5121 19.1064 18.523 19.1528 18.5515C19.1993 18.5799 19.2349 18.6243 19.2537 18.677C19.2824 18.7331 19.3131 18.7952 19.5104 18.8133C19.6076 18.7615 19.6962 18.6939 19.7729 18.6129C19.9377 18.4566 20.0929 18.3104 20.273 18.3364C20.3035 18.3406 20.3328 18.3513 20.3592 18.3678C20.3856 18.3844 20.4084 18.4064 20.4263 18.4326C20.5164 18.5648 20.4857 18.7692 20.3803 19.3383C20.2883 19.8352 20.1504 20.5846 20.2692 20.8832C20.388 21.1817 20.844 21.352 21.2272 21.5043C21.6104 21.6566 21.871 21.7688 21.9496 21.9872C22.0013 22.1275 22.076 22.4361 22.1718 22.8288C22.276 23.3155 22.4078 23.7952 22.5665 24.2655C22.7581 24.6983 23.3502 26.5418 23.333 27.6619L23.3195 29.1667ZM19.6043 26.4276C19.6786 26.4272 19.7528 26.4319 19.8266 26.4416C20.593 26.5358 21.2291 27.4775 21.551 28.0306C21.7426 27.5396 22.0741 26.8764 22.4861 26.8283C22.6319 26.8107 22.7791 26.8454 22.9038 26.9265C22.7625 26.0727 22.5365 25.2366 22.2293 24.4318C22.0576 23.9398 21.9174 23.4364 21.8097 22.925C21.7254 22.5763 21.6449 22.2457 21.6028 22.1235C21.4458 22.0158 21.2757 21.9309 21.0969 21.871C20.6562 21.6907 20.1063 21.4703 19.9339 21.0314C19.7614 20.5926 19.9089 19.8653 20.022 19.2581C20.045 19.1279 20.0718 18.9836 20.091 18.8574L20.0469 18.8994C19.8764 19.0597 19.702 19.2261 19.497 19.206C19.3608 19.1985 19.2288 19.1543 19.1138 19.0778C19.0448 19.2902 18.9528 19.5987 18.8743 19.8673C18.7428 20.3558 18.5867 20.8367 18.4068 21.308C18.0109 22.0833 17.8972 22.9824 18.0868 23.8387C18.2784 24.7424 17.6652 25.6662 17.1805 26.2232C17.3493 26.2181 17.517 26.253 17.671 26.3254C17.7876 26.3788 17.8896 26.4617 17.9679 26.5666C18.0462 26.6716 18.0982 26.7953 18.1193 26.9265C18.5635 26.6259 19.0758 26.4537 19.6043 26.4276Z" fill="white"/>
    <path d="M21.7797 28.3333L21.395 27.337C21.395 27.3256 20.8957 26.0688 20.1152 25.97C19.3347 25.8711 18.7022 26.5157 18.6966 26.5233L18.2306 27.0233L18.3767 26.3521C18.4247 26.143 18.4691 25.6905 18.3378 25.5118C18.1345 25.6483 17.9482 25.8098 17.783 25.9928L17.5 25.7494C17.6202 25.5593 18.3804 24.1751 18.2102 23.3956C17.9957 22.4184 18.4266 21.5818 18.6319 21.1787C18.6611 21.1257 18.6876 21.0711 18.7114 21.0152C18.754 20.8821 18.8168 20.5627 18.8779 20.2547C19.0184 19.5265 19.0628 19.3839 19.1257 19.3041C19.1491 19.2779 19.1777 19.2573 19.2097 19.2438C19.2417 19.2304 19.2761 19.2243 19.3107 19.2261C19.4531 19.2261 19.5566 19.3573 19.6565 19.4809L19.675 19.5037C19.751 19.4466 19.8222 19.383 19.8877 19.3136C19.9839 19.2166 20.0727 19.1234 20.2058 19.1881C20.339 19.2527 20.3223 19.3478 20.2853 19.6254C20.1133 20.9106 20.2225 21.2833 20.3427 21.367C20.5389 21.4933 20.7464 21.6003 20.9623 21.6864C21.2822 21.8233 21.5837 21.9545 21.7317 22.1807C21.8796 22.407 21.9776 22.8918 22.072 23.3633C22.1107 23.5801 22.1607 23.7947 22.2218 24.0059C22.3531 24.3862 22.9024 26.1145 22.9264 26.1886L23.3333 27.4739L22.5935 26.3521C22.4837 26.1694 22.3206 26.027 22.1275 25.9453C22.1076 25.9417 22.0873 25.9426 22.0678 25.9479C22.0484 25.9531 22.0302 25.9626 22.0146 25.9757C21.8093 26.1392 21.7335 26.8237 21.7446 27.2591L21.7797 28.3333ZM19.9432 25.5783C20.0161 25.5781 20.089 25.5826 20.1614 25.5916C20.7292 25.6639 21.1546 26.162 21.4191 26.5765C21.4672 26.2305 21.5726 25.8559 21.789 25.6772C21.8446 25.6324 21.9087 25.6002 21.9772 25.5825C22.0457 25.5648 22.117 25.5621 22.1866 25.5745C22.2441 25.5847 22.3001 25.6026 22.3531 25.6277C22.1681 25.0764 21.9443 24.3558 21.8685 24.139C21.8003 23.9113 21.7453 23.6795 21.7039 23.4451C21.6299 23.0648 21.519 22.5591 21.4191 22.3974C21.3192 22.2358 21.0695 22.1503 20.8143 22.04C20.5746 21.9453 20.3448 21.8262 20.1281 21.6845C19.7582 21.4278 19.7823 20.654 19.884 19.8117C19.7973 19.8775 19.6897 19.9074 19.5825 19.8954C19.4956 19.8801 19.4438 19.8174 19.368 19.7223C19.3273 19.8934 19.2792 20.1406 19.2441 20.3251C19.1775 20.6597 19.1165 20.9772 19.0591 21.1312C19.0296 21.2077 18.995 21.282 18.9556 21.3536C18.7706 21.7149 18.3841 22.4678 18.5672 23.3082C18.6874 23.8557 18.4543 24.5858 18.2139 25.1429C18.2585 25.1146 18.3106 25.1012 18.363 25.1046C18.4153 25.1081 18.4653 25.1281 18.5061 25.1619C18.7373 25.3368 18.7891 25.6715 18.7836 25.9548C19.1256 25.7147 19.529 25.5838 19.9432 25.5783Z" fill="white"/>
    <path d="M18.6056 26.6667L18.8819 25.5427C18.9674 25.203 18.9614 24.8198 18.87 24.7842C18.8474 24.7765 18.823 24.7765 18.8004 24.7842C18.7785 24.8038 18.7626 24.8291 18.7547 24.8573L18.7308 24.9501L18.3333 24.8751C18.3394 24.8307 18.3501 24.787 18.3651 24.7447C18.4823 24.2686 18.6255 23.524 18.5758 23.2593C18.4843 22.7674 18.9217 21.3037 19.037 21.0746C19.0826 20.9185 19.1073 20.7571 19.1105 20.5946C19.1075 20.444 19.1345 20.2942 19.19 20.1541L19.2775 20L19.4405 20.0692C19.5222 20.1069 19.6108 20.1277 19.7009 20.1304L19.8043 20.0632L19.9116 20.1304C20.0428 20.2074 20.0329 20.3279 20.013 20.5985C19.9931 20.8691 19.9593 21.3235 20.0985 21.5052C20.2118 21.6533 20.5298 21.7956 20.8101 21.922C21.1799 22.0879 21.5297 22.2459 21.6728 22.4909C21.816 22.7358 22.5753 25.2701 22.4938 25.5052C22.4401 25.6652 22.2752 25.6652 22.1539 25.6612C21.8696 25.6612 21.7842 25.6948 21.7563 25.8193C21.7285 25.9437 21.6649 26.0523 21.5575 26.0741C21.3886 26.1096 21.2971 25.9733 21.1898 25.8153C20.9652 25.4815 20.7107 25.1615 20.2873 25.2227C19.4703 25.3491 19.2318 25.6968 19.2298 25.7008L18.6056 26.6667ZM20.4125 24.8138C20.9532 24.8138 21.2872 25.2287 21.476 25.4993C21.5522 25.4155 21.6465 25.3501 21.7519 25.308C21.8573 25.2659 21.971 25.2482 22.0843 25.2563C21.9591 24.6795 21.4999 22.961 21.3349 22.6884C21.2574 22.5541 20.9373 22.4099 20.6551 22.2815C20.3151 22.1294 19.9653 21.9714 19.7903 21.7442C19.5598 21.4459 19.5916 20.9185 19.6254 20.5689C19.6245 20.5538 19.6245 20.5386 19.6254 20.5235C19.5906 20.5205 19.5561 20.5152 19.522 20.5077C19.522 20.5472 19.522 20.5886 19.512 20.6242C19.509 20.8385 19.4701 21.0508 19.3968 21.2524C19.2854 21.4716 18.9038 22.8326 18.9714 23.1882C18.9933 23.592 18.9544 23.9968 18.8561 24.3892C18.9078 24.3944 18.9586 24.4064 19.0071 24.4247C19.2795 24.5274 19.3411 24.8395 19.3371 25.1259C19.6176 24.9772 19.9225 24.8795 20.2376 24.8376C20.2951 24.8246 20.3536 24.8166 20.4125 24.8138Z" fill="white"/>
    <path d="M21.394 25C21.2934 24.9898 21.1981 24.9552 21.1186 24.9C20.8733 24.7375 20.5649 24.667 20.2607 24.7039C20.0504 24.728 19.8822 24.752 19.7413 24.7705C19.2535 24.8371 18.9843 24.8741 18.8161 24.6132C18.7795 24.555 18.759 24.4899 18.7565 24.4233C18.7539 24.3567 18.7693 24.2905 18.8014 24.2302C18.8014 24.2173 18.814 24.2006 18.8182 24.1895L18.7993 24.1747C18.7357 24.1223 18.6651 24.077 18.589 24.0396C18.5398 24.022 18.4955 23.9951 18.4592 23.9609C18.4229 23.9268 18.3955 23.8861 18.3788 23.8417C18.2547 23.4716 18.4019 22.2282 18.608 21.8951C18.6375 21.8433 18.6789 21.7975 18.7295 21.7606C18.7802 21.7236 18.8391 21.6964 18.9023 21.6805C19.1462 21.6231 19.3902 21.7545 19.6257 21.8803C19.6761 21.9081 19.7266 21.9358 19.7771 21.9599L19.8927 22.0154C20.8789 22.4928 21.2048 22.7185 21.2342 22.9405C21.2342 23.0035 21.3057 23.2162 21.3688 23.4235C21.5643 24.0692 21.701 24.5448 21.659 24.7631C21.6547 24.8089 21.637 24.853 21.6075 24.891C21.578 24.929 21.5377 24.9595 21.4907 24.9796C21.4605 24.9924 21.4275 24.9993 21.394 25ZM20.4289 24.3246C20.7143 24.3249 20.994 24.3953 21.2363 24.5281C21.1922 24.2561 21.0534 23.788 20.9693 23.5178C20.8852 23.2477 20.8368 23.0849 20.8242 22.9961C20.759 22.8906 20.3805 22.6704 19.6972 22.341L19.5773 22.2818L19.4133 22.1967C19.2913 22.1319 19.0853 22.0228 19.018 22.0376C19.0023 22.0462 18.9905 22.0593 18.9843 22.0746C18.835 22.3133 18.7047 23.3883 18.7741 23.7103C18.8805 23.7611 18.9793 23.8232 19.0685 23.8953C19.1436 23.9488 19.1955 24.0235 19.2154 24.1067C19.2353 24.19 19.222 24.2767 19.1778 24.3523C19.1547 24.4079 19.1568 24.4097 19.1652 24.4227V24.4375C19.3276 24.443 19.4902 24.43 19.6488 24.3986C19.7939 24.3782 19.9684 24.3542 20.1808 24.3301C20.2634 24.3246 20.3463 24.3246 20.4289 24.3301V24.3246Z" fill="white"/>
    <path d="M20.9793 24.1666C20.851 24.1666 20.7064 24.1666 20.5476 24.1509C20.4478 24.1509 20.3582 24.141 20.293 24.141C19.9448 24.141 19.4785 23.5203 19.2301 23.1557C19.1221 22.9803 19.1669 22.3241 19.2545 22.0285C19.2676 21.96 19.2954 21.895 19.336 21.8377C19.3767 21.7803 19.4294 21.7318 19.4907 21.6954C19.5728 21.6694 19.6596 21.6609 19.7454 21.6704C19.8311 21.6799 19.9138 21.7073 19.9876 21.7506C20.3256 21.8866 21.1544 22.3596 21.246 22.6256C21.2623 22.6709 21.299 22.7497 21.3438 22.8483C21.6472 23.5065 21.751 23.8336 21.5943 24.0149C21.4802 24.1252 21.2725 24.1666 20.9793 24.1666ZM20.3134 23.7469C20.3765 23.7469 20.4682 23.7469 20.57 23.7587C20.7982 23.7805 21.028 23.7805 21.2562 23.7587C21.186 23.4984 21.0892 23.2456 20.9671 23.0039C20.9162 22.8916 20.8754 22.8069 20.8571 22.7478C20.5096 22.4478 20.1068 22.2139 19.6699 22.058C19.5795 22.3497 19.5504 22.6559 19.5844 22.9586C19.8532 23.3527 20.1851 23.7272 20.3012 23.7469H20.3134Z" fill="white"/>
    <path d="M20.4605 24.1667C20.3697 24.1652 20.279 24.158 20.1892 24.1451L20.0792 24.1325C20.0052 24.1325 19.8344 24.1199 19.2235 23.3198C19.2061 23.2869 19.194 23.2518 19.1875 23.2155C19.1598 23.0445 19.1598 22.8705 19.1875 22.6995V22.6671C19.1861 22.6588 19.1861 22.6503 19.1875 22.642C19.2029 22.6069 19.2272 22.5761 19.2584 22.5523C19.2895 22.5284 19.3264 22.5123 19.3658 22.5053C19.6276 22.4532 20.248 22.7984 20.3239 22.8649C20.3998 22.9315 20.9197 23.7154 20.821 23.9725C20.7793 24.1289 20.6313 24.1667 20.4605 24.1667ZM20.1304 23.7765L20.2366 23.7891C20.2898 23.7891 20.3789 23.8053 20.4472 23.8089C20.345 23.5686 20.2179 23.3385 20.0678 23.122C19.903 23.023 19.7274 22.9411 19.5441 22.8775C19.5431 22.967 19.5482 23.0565 19.5593 23.1454C19.7255 23.3744 19.9169 23.586 20.1304 23.7765Z" fill="white"/>
    <path d="M24.511 16.6666L24.1667 16.4758C24.4559 15.974 31.2802 4.16669 34.233 4.16669C34.486 4.16451 34.7365 4.21597 34.9669 4.31749C35.1973 4.419 35.402 4.5681 35.5668 4.75438C37.0677 6.37054 36.6035 10.8488 36.5838 11.0377L36.1904 10.9996C36.1904 10.9538 36.6566 6.50029 35.2717 5.01007C35.1441 4.86333 34.9847 4.74582 34.8047 4.66598C34.6248 4.58614 34.4289 4.54596 34.231 4.54831C31.9727 4.55404 26.4487 13.2988 24.511 16.6666Z" fill="white"/>
    <path d="M15.4632 15C14.4297 11.6332 11.2486 2.89492 8.9435 2.89492C8.73982 2.89632 8.53862 2.94047 8.35262 3.02457C8.16662 3.10868 7.99984 3.23092 7.86279 3.3836C6.21909 5.05904 6.22499 10.3247 6.22695 10.3766H5.83325C5.83325 10.1532 5.82342 4.8915 7.58522 3.09837C7.75934 2.90999 7.96967 2.75971 8.20326 2.6568C8.43686 2.55389 8.68878 2.50053 8.9435 2.5C12.0065 2.5 15.6836 14.3797 15.8333 14.8843L15.4632 15Z" fill="white"/>
    <path d="M25.3394 15.8333L25 15.6106C25.8277 14.5242 33.0847 5 34.7795 5C36.5694 5 36.6605 9.00876 36.6667 9.4658H36.2528C36.2404 8.40648 35.9486 5.38344 34.7795 5.38344C33.6662 5.38732 28.3978 11.8033 25.3394 15.8333Z" fill="white"/>
    <path d="M14.6141 13.3334C13.5881 10.6568 10.5797 3.71009 8.85598 3.71009C7.16711 3.71009 6.39347 7.46033 6.24367 8.90505L5.83325 8.86926C5.85788 8.64323 6.44888 3.33337 8.85393 3.33337C11.181 3.33337 14.6162 12.1976 14.9999 13.2091L14.6141 13.3334Z" fill="white"/>
</svg>
